<svg width="18" height="18" viewBox="0 0 18 18" fill="none" xmlns="http://www.w3.org/2000/svg">
<rect width="18" height="18" rx="1" fill="#F15C2F"/>
<path d="M13.0819 13.6666C8.10513 13.6736 4.32806 9.85129 4.33338 4.91805C4.33338 4.59588 4.59455 4.33325 4.91671 4.33325H6.45634C6.74542 4.33325 6.991 4.54566 7.03345 4.83161C7.13519 5.51695 7.33472 6.18415 7.62599 6.81283L7.68593 6.94221C7.76928 7.12211 7.71279 7.33587 7.55144 7.45109C7.07463 7.7916 6.89241 8.47699 7.26386 9.01179C7.72999 9.68291 8.31757 10.2704 8.98853 10.7363C9.5233 11.1076 10.2086 10.9254 10.5491 10.4487C10.6644 10.2873 10.8783 10.2308 11.0583 10.3141L11.1871 10.3738C11.8158 10.665 12.483 10.8646 13.1684 10.9663C13.4544 11.0087 13.6667 11.2543 13.6667 11.5434V13.0832C13.6667 13.4054 13.4049 13.6666 13.0827 13.6666L13.0819 13.6666Z" fill="white"/>
</svg>
