<svg width="64" height="64" viewBox="0 0 64 64" fill="none" xmlns="http://www.w3.org/2000/svg">
<circle cx="32" cy="32" r="32" fill="#D0D5FF"/>
<path d="M36.1248 43.7217C33.3776 44.2725 30.5323 44.0645 27.8944 43.1201L27.136 45.4081H36.6918L36.1248 43.7217Z" fill="#0019FC"/>
<path d="M35.9456 46.073H27.8816C27.3175 46.0738 26.7643 46.2282 26.2815 46.5199C25.7986 46.8115 25.4044 47.2292 25.1411 47.728H38.6816C38.4198 47.229 38.0265 46.811 37.5442 46.5193C37.062 46.2276 36.5092 46.0732 35.9456 46.073Z" fill="#0019FC"/>
<path d="M45.3791 37.8656L43.086 35.6692C44.1975 34.1113 44.9262 32.3133 45.2127 30.4212C45.1167 30.3828 45.0207 30.338 44.9439 30.306C44.6577 30.1957 44.3796 30.0653 44.1119 29.9156C44.0379 29.8644 43.9585 29.8215 43.8751 29.7876C43.7927 29.7785 43.7092 29.7895 43.6319 29.8196C43.4434 29.8759 43.2594 29.9465 43.0815 30.0308C42.6825 30.2412 42.2397 30.3552 41.7887 30.3636C41.452 30.3363 41.1215 30.2564 40.8095 30.1268L40.5983 30.05C40.0431 29.861 39.4543 29.7912 38.8703 29.8452C38.8311 29.8492 38.7924 29.8578 38.7551 29.8708C38.7486 29.906 38.7378 29.9404 38.7231 29.9732L37.9167 31.8676C37.8996 31.9051 37.8847 31.9435 37.8719 31.9828C37.8852 31.9905 37.898 31.9991 37.9103 32.0084C38.452 32.3464 38.8852 32.8329 39.1583 33.41C39.3456 34.0437 39.3049 34.7231 39.0431 35.33C38.9919 35.4707 38.9407 35.6051 38.8831 35.7395C38.7377 36.067 38.6324 36.4108 38.5695 36.7635C38.5613 37.629 38.7222 38.4878 39.0431 39.2915C39.6334 38.962 40.1955 38.5844 40.7238 38.1626L41.7273 39.1226C39.122 41.2696 35.8123 42.373 32.4398 42.2189C29.0673 42.0648 25.8721 40.6642 23.4735 38.2885C21.0748 35.9128 19.6436 32.7312 19.457 29.3603C19.2705 25.9895 20.342 22.6694 22.4639 20.0436L23.4482 21.0157C22.9223 21.6844 22.467 22.4056 22.0895 23.168C22.4031 23.392 22.8255 23.7248 22.8639 23.7632C23.0178 23.8958 23.1994 23.9922 23.3955 24.0454C23.5915 24.0986 23.7969 24.1071 23.9967 24.0704C24.1974 23.9999 24.4126 23.9806 24.6226 24.0141C24.8327 24.0476 25.0311 24.133 25.1999 24.2624C25.373 24.4483 25.4734 24.6903 25.4828 24.9441C25.4922 25.1979 25.41 25.4466 25.2511 25.6448C25.152 25.7747 25.0406 25.8948 24.9183 26.0032C24.0095 26.848 23.9071 27.1872 23.9839 27.3152C24.1427 27.6382 24.2279 27.9922 24.2335 28.352C24.2419 28.5232 24.2699 28.6928 24.3167 28.8576C24.4156 29.0978 24.5493 29.3221 24.7135 29.5232C25.0139 29.8702 25.219 30.2892 25.3087 30.7392C25.3333 31.3104 25.1616 31.8727 24.8223 32.3328C24.542 32.8475 24.1343 33.2816 23.6383 33.5936C23.2678 33.7285 22.8734 33.7851 22.4799 33.76C22.3135 33.76 22.1407 33.7536 21.9743 33.7472C22.421 34.7123 22.9934 35.614 23.6767 36.4288C23.8431 36.352 24.0223 36.2752 24.2015 36.192C24.7455 35.9424 25.2895 35.6992 25.4879 35.6032C26.1415 35.1879 26.9278 35.0348 27.6895 35.1744C27.7855 35.2 27.8815 35.232 27.9839 35.2704C28.0676 35.309 28.1557 35.337 28.2463 35.3536C28.2584 35.3588 28.2716 35.361 28.2847 35.36C28.2826 35.3064 28.2869 35.2527 28.2975 35.2C28.3381 34.9305 28.4576 34.679 28.641 34.4774C28.8244 34.2758 29.0634 34.133 29.3279 34.0672C29.7391 33.9704 30.1653 33.9551 30.5823 34.0224C31.027 34.0368 31.459 34.1742 31.8303 34.4192C32.1782 34.7293 32.4237 35.1377 32.5343 35.5904C32.5966 35.7878 32.6781 35.9785 32.7775 36.16C33.0323 36.4692 33.354 36.7165 33.7183 36.8832C34.141 37.0654 34.518 37.3389 34.8224 37.6842C35.1267 38.0294 35.3507 38.4378 35.4783 38.88L35.5679 39.0976C35.6127 39.2064 35.7087 39.4752 35.8175 39.7952C35.8751 39.9808 35.9711 40.2368 36.0543 40.48C36.786 40.3027 37.4979 40.0518 38.1791 39.7312C37.7834 38.7544 37.5938 37.7064 37.6223 36.6528C37.6858 36.2171 37.8108 35.7926 37.9935 35.392C38.0447 35.264 38.0959 35.136 38.1407 35.0144C38.3212 34.6174 38.364 34.1714 38.2623 33.7472C38.039 33.3523 37.7198 33.02 37.3343 32.7808C37.1767 32.6757 37.0506 32.5297 36.9695 32.3584C36.9189 32.2194 36.8978 32.0712 36.9077 31.9235C36.9176 31.7759 36.9583 31.6319 37.0271 31.5008L37.8335 29.6064C37.8934 29.404 38.0163 29.226 38.1844 29.0982C38.3524 28.9704 38.5569 28.8996 38.7679 28.896C39.4901 28.8277 40.2185 28.9128 40.9055 29.1456L41.1423 29.2288C41.3589 29.3214 41.5872 29.3838 41.8207 29.4144C42.1268 29.3868 42.4246 29.2999 42.6975 29.1584C42.9093 29.0588 43.1273 28.9733 43.3503 28.9024C43.5691 28.8234 43.8048 28.803 44.0339 28.8434C44.263 28.8839 44.4774 28.9836 44.6559 29.1328C44.7135 29.1648 45.0655 29.3184 45.3215 29.4272C45.3407 29.1456 45.3535 28.864 45.3535 28.5824C45.3564 26.5673 44.8571 24.5833 43.9007 22.8096C43.4079 23.0592 42.7295 23.328 42.0191 23.6032L41.6031 23.7696C40.5906 24.1807 39.5514 24.5228 38.4927 24.7936C38.253 24.862 38.0058 24.9007 37.7567 24.9088C37.6232 24.9094 37.49 24.8944 37.3599 24.864C36.8128 24.6675 36.3542 24.2816 36.0671 23.776C35.4745 22.9798 34.9823 22.1135 34.6015 21.1968L34.5503 21.0496C34.4976 20.8504 34.4062 20.6634 34.2815 20.4992C34.179 20.4196 34.0618 20.3611 33.9366 20.3271C33.8113 20.293 33.6806 20.2841 33.5519 20.3008V20.3584C33.5706 20.5899 33.5264 20.8221 33.4239 21.0304C33.3164 21.2116 33.1522 21.3524 32.9568 21.431C32.7613 21.5097 32.5454 21.5218 32.3423 21.4656C32.0775 21.3966 31.8322 21.2674 31.6255 21.088L30.5055 20.2368C30.0831 19.9168 29.5583 19.5712 29.1679 19.7248C29.0894 19.7578 29.0144 19.7986 28.9439 19.8464C28.7261 20.006 28.47 20.1054 28.2015 20.1344C27.9664 20.1403 27.7334 20.0878 27.5235 19.9818C27.3135 19.8757 27.1331 19.7192 26.9983 19.5264C26.8262 19.274 26.6864 19.0009 26.5823 18.7136C26.5311 18.5984 26.4671 18.4512 26.4031 18.3104C26.2393 18.4173 26.0831 18.5325 25.9225 18.6471L23.6639 16.4071C23.5722 16.3197 23.4501 16.2715 23.3234 16.2727C23.1968 16.2739 23.0756 16.3244 22.9855 16.4135L21.2511 18.1735C21.1627 18.2646 21.1138 18.387 21.115 18.514C21.1162 18.641 21.1674 18.7624 21.2575 18.8519L21.7778 19.3639C19.477 22.174 18.3073 25.7413 18.4974 29.3682C18.6876 32.995 20.224 36.4205 22.806 38.9746C25.3881 41.5286 28.8301 43.0276 32.4589 43.1782C36.0876 43.3287 39.642 42.1202 42.4268 39.7888L42.9663 40.3008C43.0576 40.3881 43.1793 40.4363 43.3055 40.4352C43.3686 40.4355 43.431 40.4231 43.4893 40.3989C43.5475 40.3748 43.6004 40.3392 43.6447 40.2944L45.3791 38.5408C45.4238 38.4964 45.4592 38.4435 45.4834 38.3853C45.5076 38.3271 45.52 38.2647 45.52 38.2016C45.52 38.1386 45.5076 38.0762 45.4834 38.018C45.4592 37.9598 45.4238 37.9069 45.3791 37.8624V37.8656ZM27.0079 27.568L27.0527 27.4912C27.0969 27.4089 27.1639 27.341 27.2456 27.2956C27.3272 27.2502 27.4203 27.2293 27.5135 27.2352C27.5711 27.2224 27.7119 27.056 27.7951 26.9536C27.9694 26.7086 28.1998 26.5089 28.4671 26.3712C28.7427 26.2675 29.0408 26.2388 29.3311 26.288C29.4654 26.316 29.6047 26.3071 29.7343 26.2624C29.8471 26.1682 29.9406 26.053 30.0095 25.9232C30.1467 25.6834 30.3268 25.4708 30.5407 25.296C31.9487 24.2784 32.9023 24.496 33.4591 24.8672C33.7609 25.087 34.0135 25.3672 34.2009 25.6901C34.3882 26.013 34.5061 26.3714 34.5471 26.7424C34.608 27.0806 34.5419 27.4293 34.3615 27.7216C34.2219 27.8896 34.0467 28.0244 33.8486 28.1163C33.6504 28.2082 33.4343 28.2548 33.2159 28.2528L33.0623 28.2656C32.5542 28.3877 32.0697 28.5932 31.6287 28.8736C31.5071 28.944 31.3791 29.0144 31.2575 29.0848C30.7056 29.419 30.0782 29.6083 29.4335 29.6352C29.2326 29.6357 29.0325 29.6099 28.8383 29.5584C28.6555 29.4918 28.4632 29.4551 28.2687 29.4496C28.0334 29.4505 27.8015 29.3932 27.5938 29.2826C27.3861 29.172 27.209 29.0117 27.0783 28.816C26.962 28.6309 26.8946 28.4194 26.8823 28.2011C26.87 27.9829 26.9132 27.765 27.0079 27.568Z" fill="#0019FC"/>
<path d="M34.5888 39.2351C34.4795 38.9093 34.3197 38.6026 34.1152 38.3263C33.8616 38.077 33.57 37.8696 33.2512 37.7119C32.7445 37.4789 32.3044 37.1224 31.9712 36.6751C31.827 36.4309 31.7111 36.1711 31.6256 35.9007C31.5665 35.629 31.4337 35.3787 31.2416 35.1775C31.0123 35.0497 30.7553 34.9794 30.4928 34.9727C30.1959 34.9221 29.8922 34.9265 29.5968 34.9855C29.4176 35.0431 29.2576 35.1839 29.2512 35.3055C29.2465 35.3352 29.2444 35.3651 29.2448 35.3951C29.2409 35.5124 29.2216 35.6286 29.1872 35.7407C29.1001 35.9454 28.9446 36.1134 28.7473 36.2161C28.5501 36.3188 28.3232 36.3499 28.1056 36.3039C27.9447 36.2763 27.7878 36.229 27.6384 36.1631C27.5743 36.136 27.5079 36.1146 27.44 36.0991C26.9032 36.0376 26.3617 36.1667 25.9104 36.4639C25.7056 36.5599 25.1488 36.8095 24.5984 37.0591C24.5152 37.0975 24.4384 37.1359 24.3552 37.1743C25.7342 38.5789 27.4314 39.6303 29.3031 40.2397C31.1747 40.8491 33.1656 40.9985 35.1072 40.6751C35.0496 40.5023 34.9792 40.3167 34.9088 40.1055C34.8064 39.8111 34.7232 39.5615 34.6784 39.4591L34.5888 39.2351Z" fill="#0019FC"/>
<path d="M27.7408 18.9087C27.8816 19.0815 28.0224 19.1903 28.1248 19.1775C28.2379 19.1493 28.3444 19.0993 28.4384 19.0303C28.5571 18.9496 28.6836 18.881 28.816 18.8255C29.7568 18.4607 30.6912 19.1647 31.088 19.4655L32.1952 20.3103C32.2979 20.4026 32.4174 20.4743 32.5472 20.5215C32.5472 20.5215 32.5984 20.5279 32.6112 20.5279C32.592 20.5151 32.592 20.4255 32.592 20.3679C32.5668 20.2478 32.5679 20.1237 32.5951 20.0041C32.6224 19.8844 32.6753 19.7721 32.7501 19.6749C32.8248 19.5776 32.9198 19.4976 33.0284 19.4405C33.137 19.3834 33.2566 19.3504 33.3792 19.3439C33.6618 19.2991 33.9509 19.319 34.2247 19.4022C34.4986 19.4853 34.75 19.6295 34.96 19.8239C35.1949 20.0838 35.3658 20.395 35.4592 20.7327L35.504 20.8671C35.8517 21.696 36.301 22.4785 36.8416 23.1967C37.0976 23.5679 37.328 23.8623 37.5968 23.9263C37.8184 23.9599 38.0449 23.9379 38.256 23.8623C39.2733 23.6014 40.2718 23.2721 41.2448 22.8767L41.6672 22.7103C42.1344 22.5247 42.896 22.2303 43.4144 21.9807C41.7479 19.3631 39.149 17.4765 36.1439 16.7029C33.1388 15.9294 29.952 16.3266 27.2288 17.8143C27.2928 17.9551 27.3696 18.1215 27.4592 18.3263C27.5419 18.5256 27.6359 18.7201 27.7408 18.9087Z" fill="#0019FC"/>
<path d="M24.2591 25.2959C24.3297 25.2367 24.396 25.1725 24.4575 25.1039C24.4836 25.0624 24.503 25.0171 24.5151 24.9695C24.418 24.9618 24.3202 24.9727 24.2271 25.0015C23.8685 25.075 23.4976 25.0635 23.1442 24.9679C22.7908 24.8723 22.4647 24.6953 22.1919 24.4511C22.1407 24.3999 21.9039 24.2207 21.6991 24.0671C20.5869 26.8446 20.539 29.9349 21.5647 32.7455C22.1045 32.8158 22.6512 32.8136 23.1903 32.7391C23.5356 32.5047 23.8172 32.188 24.0095 31.8175C24.231 31.5439 24.3528 31.2031 24.3551 30.8511C24.276 30.569 24.1338 30.3086 23.9391 30.0895C23.7137 29.807 23.5325 29.492 23.4015 29.1551C23.3316 28.92 23.2907 28.6771 23.2799 28.4319C23.2754 28.21 23.2298 27.9909 23.1455 27.7855C22.6143 26.8383 23.6831 25.8335 24.2591 25.2959Z" fill="#0019FC"/>
</svg>
