<svg width="64" height="64" viewBox="0 0 64 64" fill="none" xmlns="http://www.w3.org/2000/svg">
<circle cx="32" cy="32" r="32" fill="#D0F1FF"/>
<path d="M21.7549 41.5603C21.7561 41.8666 21.8787 42.1599 22.0959 42.3758C22.313 42.5918 22.607 42.7128 22.9133 42.7123H25.0067C25.313 42.7128 25.607 42.5918 25.8241 42.3758C26.0413 42.1599 26.1639 41.8666 26.1651 41.5603V39.9053H21.7549V41.5603Z" fill="#00B0FC"/>
<path d="M37.9026 41.5603C37.9048 41.8661 38.0277 42.1588 38.2445 42.3745C38.4613 42.5902 38.7545 42.7116 39.0604 42.7123H41.1519C41.4583 42.7128 41.7523 42.5918 41.9696 42.3759C42.1868 42.1599 42.3096 41.8666 42.311 41.5603V39.9053H37.9014L37.9026 41.5603Z" fill="#00B0FC"/>
<path d="M39.9499 22.67C39.7761 22.4011 39.547 22.1725 39.2778 21.9992C39.0086 21.8259 38.7056 21.712 38.3889 21.6652C36.4398 21.4198 34.4775 21.2937 32.5131 21.2876V29.0956H43.0801C42.2911 26.8389 41.2405 24.6823 39.9499 22.67Z" fill="#00B0FC"/>
<path d="M31.5521 21.2876C29.588 21.2939 27.6262 21.42 25.6775 21.6652C25.3619 21.7129 25.06 21.8271 24.7918 22.0003C24.5237 22.1736 24.2955 22.4018 24.1223 22.67C22.8774 24.6908 21.8662 26.8465 21.1079 29.0956H31.5521V21.2876Z" fill="#00B0FC"/>
<path d="M46.7481 28.8352H45.2569C44.9814 28.8362 44.7174 28.9461 44.5226 29.1409C44.3278 29.3358 44.2179 29.5997 44.2169 29.8752V30.4589H43.8745C43.7817 30.3072 43.6902 30.1683 43.605 30.0557H20.5586C20.4678 30.169 20.3705 30.3072 20.2719 30.4589H19.783V29.8752C19.782 29.5997 19.6721 29.3358 19.4772 29.1409C19.2824 28.9461 19.0185 28.8362 18.743 28.8352H17.2518C16.9763 28.8362 16.7124 28.9461 16.5177 29.141C16.323 29.3358 16.2132 29.5997 16.2124 29.8752V30.2342C16.2132 30.5096 16.323 30.7735 16.5178 30.9682C16.7125 31.163 16.9764 31.2728 17.2518 31.2736H19.1654H19.1737H19.8399C19.3378 32.4865 19.234 33.8276 19.5436 35.1034L19.838 37.7145C19.8796 38.0878 20.0574 38.4326 20.3374 38.683C20.6174 38.9333 20.9799 39.0716 21.3554 39.0713H42.7212C43.0965 39.0708 43.4586 38.9322 43.7384 38.682C44.0182 38.4318 44.1962 38.0875 44.2386 37.7145L44.5266 35.1482C44.8356 33.8612 44.7497 32.511 44.2802 31.2736H44.8262H44.8345H46.7481C47.0235 31.2728 47.2874 31.163 47.4821 30.9682C47.6768 30.7735 47.7866 30.5096 47.7874 30.2342V29.8752C47.7866 29.5997 47.6768 29.3358 47.4821 29.141C47.2874 28.9461 47.0235 28.8362 46.7481 28.8352ZM26.3634 34.5952L25.7676 35.76C25.6804 35.933 25.5468 36.0785 25.3819 36.1802C25.2169 36.2818 25.027 36.3358 24.8332 36.336H22.805C22.526 36.3345 22.2589 36.2225 22.0621 36.0247C21.8653 35.8268 21.7548 35.5591 21.7548 35.28V34.1216C21.7551 33.8432 21.8659 33.5763 22.0628 33.3796C22.2597 33.1828 22.5267 33.0722 22.805 33.072H25.429C25.608 33.0729 25.7837 33.1195 25.9396 33.2073C26.0955 33.295 26.2264 33.4212 26.32 33.5737C26.4135 33.7262 26.4666 33.9 26.4742 34.0788C26.4818 34.2575 26.4437 34.4353 26.3634 34.5952ZM34.5164 36.8608H29.5564C29.4291 36.8608 29.307 36.8102 29.217 36.7202C29.127 36.6302 29.0764 36.5081 29.0764 36.3808C29.0764 36.2535 29.127 36.1314 29.217 36.0414C29.307 35.9514 29.4291 35.9008 29.5564 35.9008H34.5164C34.6437 35.9008 34.7658 35.9514 34.8558 36.0414C34.9458 36.1314 34.9964 36.2535 34.9964 36.3808C34.9964 36.5081 34.9458 36.6302 34.8558 36.7202C34.7658 36.8102 34.6437 36.8608 34.5164 36.8608ZM34.5164 34.9984H29.5564C29.4291 34.9984 29.307 34.9478 29.217 34.8578C29.127 34.7678 29.0764 34.6457 29.0764 34.5184C29.0764 34.3911 29.127 34.269 29.217 34.179C29.307 34.089 29.4291 34.0384 29.5564 34.0384H34.5164C34.6437 34.0384 34.7658 34.089 34.8558 34.179C34.9458 34.269 34.9964 34.3911 34.9964 34.5184C34.9964 34.6457 34.9458 34.7678 34.8558 34.8578C34.7658 34.9478 34.6437 34.9984 34.5164 34.9984ZM42.3122 35.28C42.3128 35.4183 42.2861 35.5554 42.2337 35.6833C42.1812 35.8113 42.104 35.9277 42.0065 36.0257C41.909 36.1238 41.7931 36.2017 41.6655 36.255C41.5378 36.3082 41.4009 36.3357 41.2626 36.336H39.2319C39.0382 36.3357 38.8484 36.2818 38.6836 36.1801C38.5187 36.0784 38.3853 35.933 38.2982 35.76L37.7087 34.5952C37.6267 34.4354 37.5873 34.2572 37.5941 34.0778C37.601 33.8983 37.6539 33.7237 37.7479 33.5706C37.8418 33.4176 37.9736 33.2913 38.1305 33.204C38.2874 33.1167 38.4642 33.0712 38.6438 33.072H41.2614C41.3993 33.0716 41.536 33.0984 41.6635 33.151C41.7911 33.2036 41.9069 33.2809 42.0045 33.3785C42.102 33.476 42.1793 33.5919 42.2319 33.7194C42.2845 33.847 42.3114 33.9836 42.311 34.1216L42.3122 35.28Z" fill="#00B0FC"/>
</svg>
