<svg width="18" height="18" viewBox="0 0 18 18" fill="none" xmlns="http://www.w3.org/2000/svg">
<g clip-path="url(#clip0)">
<path d="M9.99971 8.3588L8.7621 8.08414C8.29134 7.97688 7.74944 7.83516 7.74944 7.39131C7.74944 6.9465 8.12956 6.63573 8.8158 6.63573C10.1988 6.63573 10.0725 7.58618 10.7591 7.58618C11.1205 7.58618 11.4367 7.37373 11.4367 7.00844C11.4367 6.15604 10.0725 5.51636 8.91522 5.51636C7.65894 5.51636 6.32108 6.04988 6.32108 7.47083C6.32108 8.15514 6.56552 8.88312 7.91217 9.22081L9.58429 9.63829C10.0903 9.76299 10.217 10.0477 10.217 10.3045C10.217 10.7316 9.79276 11.1488 9.02426 11.1488C7.52312 11.1488 7.73145 9.99356 6.92697 9.99356C6.56552 9.99356 6.30322 10.2425 6.30322 10.5978C6.30322 11.2905 7.14423 12.2149 9.02426 12.2149C10.813 12.2149 11.6993 11.3527 11.6993 10.198C11.6993 9.45248 11.3556 8.66092 9.99971 8.3588Z" fill="#F15C2F"/>
<path d="M16.7018 0H1.29817C0.581177 0 0 0.581177 0 1.29817V16.7018C0 17.4188 0.581177 18 1.29817 18H16.7018C17.4188 18 18 17.4188 18 16.7018V1.29817C18 0.581177 17.4188 0 16.7018 0V0ZM13.6858 13.6725C13.0941 14.2645 12.3077 14.5898 11.4711 14.5898C10.9292 14.5898 10.3986 14.4489 9.92986 14.1838C9.62567 14.2377 9.31407 14.2662 9.00316 14.2662C8.28877 14.2662 7.59554 14.1261 6.94336 13.8496C6.31274 13.5838 5.74709 13.2019 5.2608 12.7159C4.77507 12.23 4.39357 11.6643 4.12729 11.034C3.85098 10.3814 3.71118 9.68857 3.71118 8.97404C3.71118 8.66808 3.73865 8.36169 3.79083 8.0619C3.53362 7.59924 3.3967 7.07574 3.3967 6.54305C3.3967 5.7063 3.72272 4.91954 4.31419 4.32793C4.90594 3.73604 5.6927 3.41016 6.52945 3.41016C7.04196 3.41016 7.54843 3.53801 7.9986 3.77737C7.99942 3.77724 8.00038 3.77724 8.00107 3.77696C8.32928 3.71407 8.66643 3.68234 9.00316 3.68234C9.71741 3.68234 10.4105 3.82228 11.0627 4.09818C11.6926 4.36473 12.259 4.74623 12.7446 5.2321C13.2308 5.71811 13.6122 6.28404 13.8788 6.91425C14.1551 7.5667 14.2949 8.25966 14.2949 8.97404C14.2949 9.29608 14.2645 9.61839 14.2067 9.93329C14.4657 10.3977 14.6034 10.923 14.6034 11.4575C14.6033 12.2943 14.2777 13.0811 13.6858 13.6725Z" fill="#F15C2F"/>
</g>
<defs>
<clipPath id="clip0">
<rect width="18" height="18" fill="white"/>
</clipPath>
</defs>
</svg>
