<svg width="527" height="491" viewBox="0 0 527 491" fill="none" xmlns="http://www.w3.org/2000/svg">
<path fill-rule="evenodd" clip-rule="evenodd" d="M249.817 257.349C236.777 258.853 226.77 258.673 219.798 256.808C212.825 254.943 207.326 250.976 203.3 244.908C198.913 235.627 196.479 230.308 195.999 228.952C193.646 222.303 193.385 215.769 193.835 211.373C194.423 205.631 197.578 198.148 203.3 188.926C204.116 182.514 205.468 176.834 207.358 171.888C209.247 166.941 213.033 159.82 218.716 150.523L219.527 119.962C221.925 112.967 224.179 108.009 226.289 105.088C228.398 102.167 230.832 100.634 233.59 100.49C235.918 100.269 238.081 100.81 240.081 102.113C242.081 103.416 245.867 106.751 251.44 112.119C256.042 104.088 261.27 97.9577 267.126 93.7291C272.98 89.5004 280.733 86.2553 290.383 83.9932L291.736 81.2888L291.899 65.381L287.409 26.6587H281.459L290.654 13.1364C291.475 10.1566 292.286 7.99349 293.088 6.64565C293.89 5.29834 295.388 3.76537 297.583 2.04835C297.623 1.55035 299.427 1.2797 302.996 1.23639C306.565 1.19309 312.187 1.37334 319.863 1.7777C323.138 2.53011 325.395 3.52178 326.624 4.75271C327.852 5.98309 328.935 8.59758 329.866 12.5957L343.052 26.6777L334.738 27.1995L333.926 52.892C332.767 57.2982 331.685 60.2727 330.678 61.8165C329.671 63.3603 328.053 64.5322 325.812 65.3322L312.561 66.1437L310.937 81.8296L312.019 83.9932C318.786 85.9278 323.387 87.4602 325.812 88.5905C331.642 91.3051 336.914 95.2361 340.957 102.113C343.788 106.927 346.717 113.578 350.69 120.503C354.192 126.601 360.59 137.328 369.896 152.686L379.087 160.799L383.688 169.995L394.774 178.378L399.911 161.611C389.458 145.745 384.229 135.648 384.229 131.321C384.229 129.513 385.323 127.807 386.389 126.723C387.883 125.213 389.929 124.286 393.421 124.56C395.748 124.743 398.005 126.185 400.182 128.887L431.285 212.454C428.189 222.599 425.487 230.171 423.171 235.172C420.859 240.172 417.433 245.13 412.897 250.046C406.358 253.714 400.858 255.878 396.398 256.537C391.937 257.197 384.635 256.566 374.491 254.644C370.94 253.018 368.596 251.485 367.46 250.046C363.254 244.711 361.489 237.944 359.345 234.36C356.336 229.327 354.533 224.639 353.938 220.297L339.875 174.592L279.025 172.699L273.346 218.945C270.241 231.514 266.906 240.709 263.339 246.531C259.773 252.352 255.265 255.958 249.817 257.349Z" fill="white"/>
<path fill-rule="evenodd" clip-rule="evenodd" d="M254.008 267.311C252.907 267.113 252.095 267.014 251.572 267.017C249.567 267.025 247.93 266.922 246.971 265.393C245.638 263.266 245.998 260.74 248.054 257.815L253.737 255.92H256.444L276.202 256.732L282.427 255.92L304.349 255.108C306.695 256.191 307.505 258.266 306.785 261.333C306.064 264.4 304.079 266.295 300.831 267.017L294.335 267.311L250.49 468.355H222.342C227.16 436.775 231.039 413.02 233.98 397.097C236.92 381.174 243.596 337.913 254.008 267.311ZM322.754 267.311C322.71 266.673 320.994 266.574 317.611 267.017C314.726 265.573 313.552 263.318 314.093 260.251C314.634 257.183 315.987 255.559 318.153 255.379L322.212 255.92H334.662L347.112 256.732L360.916 255.379C365.246 255.739 367.411 257.724 367.411 261.333C367.411 263.384 366.718 264.449 365.787 265.393C365.316 265.87 364.413 266.412 363.081 267.017L358.75 267.311L369.847 468.626H340.617C336.681 432.423 334.154 407.046 333.039 392.491C331.712 375.155 324.204 288.986 322.754 267.311Z" fill="white"/>
<path fill-rule="evenodd" clip-rule="evenodd" d="M254.008 267.04H294.335L250.49 468.084H222.342C227.16 436.505 231.039 412.749 233.98 396.826C236.92 380.903 243.596 337.641 254.008 267.04ZM322.754 267.04H358.75L369.847 468.355H340.617C336.681 432.152 334.154 406.776 333.039 392.22C331.712 374.884 324.204 288.715 322.754 267.04Z" stroke="#2D2522" stroke-width="1.5"/>
<path fill-rule="evenodd" clip-rule="evenodd" d="M279.178 87.6702L248.663 87.8136C233.439 87.8851 220.922 99.836 220.146 115.04L219.635 125.062C220.112 119.909 220.743 116.296 221.529 114.223C222.778 110.934 224.219 109.042 225.86 106.908C228.34 103.681 231.149 100.958 233.438 100.405C238.671 99.1404 244.535 103.205 251.03 112.598C252.118 110.494 253.021 108.868 253.737 107.721C255.167 105.43 256.69 102.957 259.421 100.405C264.834 95.3475 271.42 91.1026 279.178 87.6702Z" fill="#F15C2F"/>
<path fill-rule="evenodd" clip-rule="evenodd" d="M254.277 255.39C257.061 256.405 262.294 256.856 269.975 256.744C274.158 256.683 281.687 255.434 288.109 255.118C291.69 254.942 297.103 254.942 304.348 255.118L310.573 238.59H316.527L318.422 255.118C324.755 255.515 329.264 255.785 331.955 255.931C337.736 256.245 342.542 256.473 346.299 256.473C352.676 256.473 357.363 256.021 360.373 255.118L346.57 177.897L282.425 180.336C281.587 192.095 278.52 205.01 273.223 219.082C272.094 222.081 271.914 225.872 270.787 229.649C269.07 235.405 267.179 240.972 265.103 244.822C263.134 248.475 259.525 251.997 254.277 255.39Z" fill="#F15C2F"/>
<path d="M359.945 255.299L353.748 219.15C353.71 218.93 353.861 218.719 354.078 218.681C354.3 218.643 354.511 218.792 354.549 219.013L360.714 254.983H361.591C365.028 254.983 367.816 257.773 367.816 261.215C367.816 264.657 365.028 267.447 361.591 267.447H318.882C315.835 267.447 313.366 264.974 313.366 261.922C313.366 261.667 313.382 261.412 313.42 261.159L313.745 258.832C314.037 256.738 315.656 255.1 317.707 254.763L316.159 238.997H310.855L304.905 254.794C306.564 255.178 307.742 256.728 307.607 258.481C307.596 258.632 307.574 258.782 307.542 258.93L307.044 261.298C306.297 264.88 303.142 267.447 299.486 267.447H249.973C247.691 267.447 245.842 265.595 245.842 263.311C245.842 262.879 245.909 262.449 246.043 262.038C246.404 260.921 246.854 259.478 247.394 257.709C247.459 257.494 247.686 257.374 247.9 257.439C248.115 257.505 248.235 257.732 248.17 257.947C247.629 259.719 247.178 261.167 246.815 262.288C246.708 262.619 246.654 262.964 246.654 263.311C246.654 265.146 248.14 266.634 249.973 266.634H299.486C302.757 266.634 305.581 264.338 306.251 261.131L306.747 258.764C306.77 258.65 306.787 258.535 306.795 258.418C306.91 256.938 305.805 255.644 304.328 255.525C300.97 255.458 298.593 255.425 297.202 255.423C293.434 255.419 282.808 256.036 280.585 256.334C275.538 257.01 272.866 257.108 268.501 256.961C268.359 256.956 268.359 256.956 268.217 256.951C266.657 256.898 265.911 256.879 264.916 256.879C261.306 256.879 258.609 256.789 256.819 256.607C254.719 256.393 253.768 256.093 253.875 255.332L254.68 255.447C254.688 255.388 254.672 255.344 254.661 255.324C254.718 255.368 254.834 255.422 255.007 255.476C255.405 255.601 256.04 255.71 256.901 255.798C258.658 255.977 261.331 256.067 264.916 256.067C265.923 256.067 266.676 256.085 268.244 256.138C268.386 256.143 268.386 256.143 268.528 256.148C272.851 256.294 275.479 256.198 280.477 255.528C282.739 255.225 293.4 254.606 297.203 254.611C298.563 254.612 300.851 254.644 304.069 254.707L310.194 238.447C310.254 238.289 310.405 238.184 310.573 238.184H316.527H320.046C320.268 238.184 320.452 238.366 320.452 238.59C320.452 238.815 320.268 238.997 320.046 238.997H316.977L318.53 254.808C320.322 255.103 323.905 255.254 329.248 255.254C331.256 255.254 341.076 255.803 343.901 256.069C347.122 256.371 352.475 256.116 359.945 255.299ZM360.389 255.796L360.416 256.064C352.692 256.92 347.165 257.192 343.825 256.878C341.027 256.614 331.229 256.067 329.248 256.067C323.532 256.067 319.819 255.897 318.07 255.551L318.076 255.533C316.262 255.722 314.801 257.126 314.546 258.944L314.221 261.271C314.194 261.487 314.178 261.705 314.178 261.922C314.178 264.524 316.284 266.634 318.882 266.634H361.591C364.579 266.634 367.004 264.208 367.004 261.215C367.004 258.222 364.579 255.796 361.591 255.796H360.389Z" fill="#2D2522"/>
<path d="M313.123 66.1295L311.548 82.7822C324.377 87.1478 332.583 90.9386 336.188 94.1875C340.87 98.401 352.865 122.753 359.009 138.734C360.866 143.56 363.746 146.618 370.728 152.276L371.313 152.752C378.328 158.434 381.192 161.502 382.951 166.379C385.658 173.908 391.082 175.717 399.445 171.838C399.65 171.744 399.894 171.833 399.986 172.036C400.078 172.24 399.991 172.482 399.786 172.576C391.011 176.645 385.068 174.661 382.182 166.655C380.499 161.965 377.706 158.975 370.804 153.383L370.214 152.908C363.123 147.162 360.178 144.03 358.251 139.026C352.162 123.185 340.188 98.8822 335.646 94.7921C332.117 91.6152 323.884 87.8228 310.985 83.4491C310.806 83.3885 310.692 83.2131 310.709 83.0258L312.311 66.1295H307.596C307.374 66.1295 307.19 65.9476 307.19 65.723C307.19 65.4989 307.374 65.3165 307.596 65.3165H312.749C312.755 65.3165 312.755 65.3165 312.76 65.3165H321.773C327.359 65.3165 330.602 63.043 332.296 58.4473C333.654 54.7546 333.985 50.4864 333.985 41.3621V35.148C333.985 35.0619 333.985 34.9921 333.985 34.834C333.99 31.813 333.849 30.0722 333.2 27.4181C333.189 27.4024 333.167 27.3829 333.146 27.3602C333.081 27.2969 332.994 27.2141 332.88 27.1123H294.176C293.951 27.1123 293.77 26.9304 293.77 26.7063C293.77 26.4817 293.951 26.2998 294.176 26.2998H333.037C333.135 26.2998 333.232 26.3361 333.308 26.4016C333.784 26.8265 333.931 26.9694 333.974 27.1507C334.656 29.9227 334.802 31.7264 334.797 34.8351C334.797 34.9932 334.797 35.0624 334.797 35.148V41.3621C334.797 50.5892 334.461 54.911 333.054 58.7288C331.246 63.6428 327.7 66.1295 321.773 66.1295H313.123ZM431.706 211.922L432.486 212.152C425.687 235.273 418.461 248.752 410.731 252.609C398.557 258.683 383.676 259.151 371.562 253.202C369.96 252.416 368.704 251.318 367.426 249.631C366.517 248.428 365.624 246.98 364.189 244.468C363.816 243.811 362.387 241.279 362.176 240.909C361.277 239.326 360.503 237.979 359.68 236.575C358.549 234.652 356.941 230.407 354.847 223.811L355.615 223.565C357.694 230.102 359.291 234.311 360.379 236.162C361.207 237.57 361.986 238.921 362.885 240.507C363.096 240.88 364.52 243.409 364.893 244.065C366.311 246.548 367.194 247.973 368.076 249.14C369.278 250.732 370.442 251.746 371.919 252.472C383.801 258.305 398.416 257.847 410.368 251.882C417.827 248.16 424.967 234.833 431.706 211.922Z" fill="#2D2522"/>
<path fill-rule="evenodd" clip-rule="evenodd" d="M320.317 86.5865L325.189 88.4832C328.616 98.9601 331.236 107.901 333.038 115.308C334.841 122.713 336.015 133.732 336.557 148.363L329.79 146.467C330.332 134.726 329.341 124.339 326.813 115.308C325.714 111.373 323.549 101.8 320.317 86.5865ZM278.908 87.6702L283.509 85.7734C284.591 93.7815 285.133 100.104 285.133 104.74C285.133 109.376 285.133 114.073 285.133 118.83L278.096 128.855C279.178 125.604 279.72 118.288 279.72 106.908C279.72 95.5277 279.449 89.1154 278.908 87.6702Z" fill="#F15C2F"/>
<path d="M320.192 86.6709L320.035 85.9353L325.783 88.1741L325.843 88.3566C329.275 98.8427 331.895 107.794 333.703 115.211C335.516 122.649 336.691 133.692 337.232 148.349L337.254 148.905L329.638 146.771L329.654 146.448C330.195 134.748 329.205 124.404 326.693 115.417C325.589 111.472 323.423 101.894 320.192 86.6709ZM327.472 115.198C329.989 124.191 330.991 134.513 330.482 146.162L336.398 147.822C335.852 133.493 334.688 122.684 332.912 115.404C331.121 108.052 328.528 99.181 325.134 88.7923L321.139 87.2382C324.284 102.015 326.395 111.339 327.472 115.198ZM278.797 87.8131L278.659 87.4445L284.11 85.1975L284.181 85.7193C285.266 93.7436 285.808 100.083 285.808 104.74V118.958L277.104 131.36L277.98 128.727C279.044 125.532 279.583 118.243 279.583 106.908C279.583 95.6176 279.312 89.1869 278.797 87.8131ZM280.395 106.908C280.395 116.304 280.028 122.938 279.285 126.838L284.996 118.702V104.74C284.996 100.226 284.48 94.0949 283.446 86.3505L279.67 87.9067C280.161 89.9415 280.395 96.2223 280.395 106.908Z" fill="#2D2522"/>
<path d="M312.619 87.7855L313.398 87.5549L350.218 211.961C352.318 222.956 359.902 228.429 373.093 228.429C386.29 228.429 397.138 219.612 405.653 201.898L406.384 202.25C397.75 220.219 386.648 229.242 373.093 229.242C359.534 229.242 351.598 223.517 349.428 212.152L312.619 87.7855ZM332.636 188.402L333.437 188.526C329.258 215.621 321.41 229.242 309.761 229.242C300.338 229.242 294.069 199.896 291.492 143.776C291.006 133.194 290.735 115.126 290.68 89.5681L291.492 89.5659C291.547 115.113 291.818 133.172 292.303 143.739C294.847 199.128 301.106 228.429 309.761 228.429C320.847 228.429 328.511 215.137 332.636 188.402Z" fill="#2D2522"/>
<path fill-rule="evenodd" clip-rule="evenodd" d="M373.084 175.074L401.443 172.094L403.121 188.053L374.762 191.034L373.084 175.074ZM346.782 146.464L344.113 121.106C345.185 118.364 348 116.753 352.568 116.273C357.132 115.794 360.222 116.784 361.841 119.243L364.504 144.601L346.782 146.464ZM421.222 138.639L403.5 140.503L400.831 115.145C401.903 112.403 404.718 110.792 409.286 110.312C413.85 109.832 416.94 110.822 418.559 113.282L421.222 138.639Z" fill="#2D2522"/>
<path fill-rule="evenodd" clip-rule="evenodd" d="M344.551 174.621L340.432 135.432C342.158 131.186 346.673 128.68 353.98 127.912C361.283 127.144 366.219 128.657 368.791 132.451L372.91 171.64L344.551 174.621ZM429.628 165.679L401.269 168.66L397.149 129.47C398.876 125.225 403.391 122.719 410.698 121.951C418 121.183 422.937 122.696 425.508 126.49L429.628 165.679Z" fill="white"/>
<path fill-rule="evenodd" clip-rule="evenodd" d="M344.373 174.73L340.254 135.541C341.981 131.296 346.495 128.789 353.803 128.022C361.105 127.254 366.042 128.767 368.613 132.561L372.732 171.75L344.373 174.73ZM429.45 165.789L401.091 168.769L396.972 129.58C398.699 125.335 403.213 122.828 410.521 122.06C417.823 121.293 422.76 122.806 425.331 126.599L429.45 165.789Z" fill="white" stroke="#2D2522" stroke-width="1.5" stroke-linecap="round" stroke-linejoin="round"/>
<path fill-rule="evenodd" clip-rule="evenodd" d="M343.679 218.056L338.91 172.719C341.379 167.759 347.631 164.751 357.677 163.695C367.718 162.64 374.463 164.281 377.906 168.621L382.669 213.958L343.679 218.056ZM439.387 207.996L400.397 212.094L395.628 166.758C398.096 161.797 404.348 158.789 414.395 157.734C424.436 156.678 431.181 158.32 434.624 162.66L439.387 207.996Z" fill="white"/>
<path d="M343.594 218.474C343.372 218.497 343.171 218.335 343.15 218.112L338.386 172.775C338.375 172.698 338.392 172.621 338.424 172.552C340.963 167.44 347.339 164.373 357.51 163.304C367.676 162.236 374.551 163.91 378.102 168.381C378.15 168.442 378.177 168.515 378.188 168.592L382.952 213.928C382.973 214.152 382.811 214.352 382.589 214.375L343.594 218.474ZM382.102 213.609L377.393 168.795C374.031 164.657 367.443 163.078 357.592 164.113C347.745 165.148 341.629 168.062 339.204 172.809L343.913 217.623L382.102 213.609ZM439.67 207.967C439.691 208.191 439.529 208.39 439.307 208.414L400.311 212.512C400.09 212.536 399.889 212.374 399.868 212.15L395.104 166.814C395.093 166.737 395.109 166.66 395.142 166.59C397.686 161.479 404.063 158.412 414.228 157.343C424.394 156.275 431.269 157.948 434.82 162.42C434.868 162.481 434.895 162.554 434.906 162.631L439.67 207.967ZM438.82 207.648L434.11 162.834C430.749 158.695 424.161 157.116 414.315 158.151C404.463 159.187 398.352 162.101 395.921 166.848L400.631 211.661L438.82 207.648Z" fill="#2D2522"/>
<path fill-rule="evenodd" clip-rule="evenodd" d="M363.746 222.67C352.979 223.801 343.94 221.742 343.55 218.069C343.165 214.397 351.583 210.502 362.349 209.37C373.116 208.239 382.161 210.298 382.545 213.971C382.935 217.643 374.518 221.538 363.746 222.67ZM420.469 216.708C409.697 217.84 400.657 215.78 400.273 212.108C399.883 208.435 408.301 204.541 419.067 203.409C429.839 202.277 438.879 204.337 439.263 208.009C439.653 211.682 431.236 215.577 420.469 216.708Z" fill="#2D2522"/>
<path d="M333.969 182.284C337.373 181.925 339.842 178.875 339.484 175.468C339.127 172.062 336.074 169.591 332.669 169.949C329.265 170.307 326.796 173.358 327.154 176.764C327.511 180.17 330.564 182.642 333.969 182.284ZM333.882 181.475C330.921 181.786 328.274 179.639 327.96 176.679C327.652 173.72 329.795 171.068 332.756 170.757C335.712 170.446 338.364 172.593 338.678 175.553C338.986 178.512 336.843 181.164 333.882 181.475Z" fill="#2D2522"/>
<path d="M204.012 188.99L209.481 186.999C209.692 186.922 209.925 187.031 210.002 187.242C210.078 187.453 209.969 187.686 209.759 187.763L204.896 189.533L209.826 192.45C210.02 192.564 210.083 192.813 209.97 193.007C209.856 193.2 209.607 193.264 209.413 193.15L203.908 189.892L203.804 189.93C203.757 189.948 203.707 189.956 203.659 189.955C193.719 203.206 191.42 216.28 196.734 229.224C201.913 241.843 204.242 246.346 208.166 250.233C212.69 254.715 218.921 257.043 229.693 258.237C250.007 260.488 261.872 253.748 267.156 238.727C270.458 229.341 272.347 222.769 272.821 219.031C272.849 218.808 273.052 218.651 273.274 218.679C273.497 218.707 273.654 218.911 273.626 219.133C273.143 222.945 271.242 229.559 267.922 238.996C262.508 254.389 250.28 261.335 229.603 259.045C218.666 257.833 212.271 255.442 207.595 250.811C203.563 246.817 201.207 242.259 195.982 229.533C190.524 216.237 192.932 202.791 203.176 189.247C204.278 175.494 209.265 162.622 218.131 150.638C226.97 138.69 236.078 129.708 245.46 123.694C251.802 106.875 261.009 95.6108 273.086 89.9271C279.103 87.0955 283.619 85.2128 286.642 84.278C288.666 83.6523 290.107 83.4217 290.913 83.6761L292.305 58.1146C292.317 57.8905 292.508 57.7189 292.732 57.7297C292.956 57.7433 293.128 57.9349 293.116 58.159L291.668 84.75C291.639 85.2762 290.856 85.2551 290.856 84.7278C290.856 84.2304 289.604 84.2131 286.881 85.0548C283.903 85.9761 279.417 87.8457 273.431 90.6627C261.533 96.2619 252.446 107.401 246.173 124.107C246.142 124.189 246.085 124.259 246.011 124.306C236.68 130.263 227.603 139.2 218.783 151.122C210.075 162.892 205.153 175.513 204.012 188.99Z" fill="#2D2522"/>
<path fill-rule="evenodd" clip-rule="evenodd" d="M291.357 81.4387L287.554 91.0674C287.335 91.6233 287.607 92.2523 288.164 92.4721C288.383 92.5582 288.624 92.5712 288.851 92.5084L305.091 88.0026L315.84 91.8307C316.403 92.0315 317.02 91.7376 317.22 91.1741C317.345 90.8374 317.291 90.4628 317.08 90.1737L311.115 81.9806C310.01 82.9435 307.639 83.4253 304.006 83.4253C300.372 83.4253 296.156 82.7633 291.357 81.4387Z" fill="white"/>
<path d="M304.839 88.2987L289.23 92.6286C288.918 92.7152 288.587 92.6979 288.286 92.5788C287.521 92.2762 287.146 91.4102 287.448 90.6448L291.25 81.0182C291.326 80.825 291.536 80.7205 291.735 80.7757C296.502 82.0916 300.683 82.7482 304.276 82.7482C307.818 82.7482 310.108 82.2821 311.12 81.4031C311.299 81.2466 311.575 81.2775 311.716 81.4702L317.675 89.6607C317.962 90.0585 318.038 90.5744 317.876 91.0377C317.6 91.8134 316.75 92.2183 315.97 91.9423L305.652 88.2663C305.671 88.4205 305.692 88.6013 305.716 88.8092C305.818 89.691 305.97 91.0572 306.173 92.9096C306.579 96.6132 307.19 102.258 308.002 109.845C308.024 110.068 307.861 110.269 307.64 110.292C307.418 110.316 307.217 110.155 307.19 109.932C306.38 102.346 305.772 96.7009 305.366 92.9983C305.163 91.1476 305.01 89.7819 304.909 88.9023C304.882 88.6657 304.858 88.4644 304.839 88.2987ZM304.829 83.5575C304.918 83.9055 305.003 84.2936 305.084 84.7175C305.217 85.4076 305.321 86.0718 305.443 86.9482L305.495 87.3195C305.497 87.3298 305.498 87.3396 305.5 87.3493L316.246 91.1763C316.598 91.3019 316.982 91.1179 317.107 90.7655C317.183 90.5549 317.15 90.3205 317.02 90.1397L311.299 82.2832C310.075 83.1006 307.926 83.5142 304.829 83.5575ZM304.7 87.4933C304.698 87.4743 304.695 87.4543 304.692 87.4332L304.64 87.0613C304.519 86.1974 304.417 85.5446 304.287 84.8707C304.192 84.3781 304.093 83.9385 303.99 83.5596C300.473 83.5266 296.434 82.8917 291.871 81.6559L288.203 90.9436C288.066 91.2916 288.236 91.6851 288.584 91.8226C288.721 91.8768 288.872 91.8849 289.014 91.8454L304.7 87.4933Z" fill="#2D2522"/>
<path fill-rule="evenodd" clip-rule="evenodd" d="M249.406 174.455C271.866 138.616 284.767 118.836 288.11 115.117C290.718 112.213 295.186 111.975 298.09 114.583C300.262 116.536 301.01 119.623 299.971 122.353L291.899 143.567" fill="white"/>
<path d="M249.655 174.862C272.089 139.064 284.998 119.272 288.316 115.579C290.776 112.841 294.987 112.618 297.721 115.081C299.768 116.924 300.471 119.837 299.492 122.412L291.424 143.613L292.183 143.902L300.25 122.701C301.349 119.812 300.561 116.545 298.265 114.477C295.197 111.714 290.472 111.964 287.712 115.036C284.345 118.783 271.453 138.55 248.967 174.43L249.655 174.862Z" fill="#2D2522"/>
<path fill-rule="evenodd" clip-rule="evenodd" d="M299.575 42.7079C298.944 42.5217 298.274 42.4215 297.582 42.4215C293.696 42.4215 290.545 45.5757 290.545 49.4661C290.545 52.7718 292.82 55.546 295.887 56.3055L295.569 62.8601C295.484 64.6085 294.03 65.9748 292.28 65.9504L283.927 65.833C283.391 65.8254 282.859 65.7458 282.345 65.5959C279.188 64.6762 277.374 61.371 278.294 58.2136L287.473 26.7064H288.56L288.565 26.7004L289.838 26.7064H294.605L294.606 26.7291L305.929 26.7838C304.621 32.7966 303.447 36.8147 302.406 38.8376C301.664 40.2823 300.72 41.5728 299.575 42.7079ZM338.045 26.7064C339.106 31.222 337.46 33.4803 333.097 33.4803C328.729 33.4803 322.184 31.222 313.459 26.7064H338.045Z" fill="#2D2522"/>
<path fill-rule="evenodd" clip-rule="evenodd" d="M237.868 183.914L274.619 151.168C279.968 146.401 286.909 143.808 294.074 143.901L335.922 144.439C341.638 144.513 346.31 149.021 346.586 154.731C346.851 160.135 342.683 164.729 337.275 164.992C337.156 164.998 337.032 165.001 336.907 165.003L301.479 165.391C299.312 165.414 297.574 167.19 297.598 169.358C297.598 169.359 297.598 169.361 297.598 169.362C297.624 171.557 299.379 173.339 301.572 173.399L338.141 174.401C343.127 174.538 347.1 178.602 347.127 183.587C347.154 188.499 343.192 192.502 338.282 192.528C338.266 192.528 338.25 192.528 338.233 192.528H303.374C301.23 192.528 299.492 194.267 299.492 196.411C299.492 196.426 299.492 196.442 299.492 196.457C299.52 198.815 301.024 200.901 303.251 201.675L325.572 209.424C329.437 210.764 331.478 214.983 330.135 218.846C330.076 219.017 330.011 219.186 329.941 219.353C328.154 223.49 323.499 225.573 319.223 224.146L282.935 212.037L263.304 225.139C253.236 231.859 239.627 229.144 232.907 219.076C232.275 218.129 231.718 217.135 231.241 216.101C229.531 212.4 228.998 207.098 229.641 200.194C230.225 193.922 233.165 188.104 237.868 183.914Z" fill="white"/>
<path d="M236.408 222.397L243.253 217.992C240.904 215.746 239.008 212.988 237.405 209.781C235.084 205.132 235.847 196.242 239.652 183.055L238.355 184.21C233.721 188.339 230.825 194.075 230.251 200.259C229.618 207.084 230.145 212.311 231.818 215.931C232.284 216.94 232.828 217.912 233.444 218.837C234.32 220.153 235.316 221.341 236.408 222.397ZM237.022 222.968C244.156 229.345 254.947 230.367 263.275 224.809L265.169 223.545C257.643 224.906 251.522 223.795 246.616 220.643C245.639 220.016 244.726 219.32 243.871 218.561L237.022 222.968ZM240.084 181.581C240.085 181.579 240.085 181.577 240.087 181.574C240.133 181.419 240.262 181.313 240.412 181.289L274.56 150.862C279.984 146.029 287.018 143.401 294.278 143.495L336.145 144.033C342.067 144.11 346.912 148.787 347.199 154.712C347.475 160.339 343.139 165.124 337.515 165.398C337.39 165.404 337.26 165.408 337.131 165.409L301.688 165.797C299.747 165.819 298.191 167.411 298.212 169.354V169.358C298.236 171.334 299.815 172.938 301.788 172.992L338.37 173.995C343.567 174.137 347.713 178.381 347.74 183.585C347.767 188.722 343.632 192.908 338.5 192.935H338.451H303.578C301.661 192.935 300.107 194.491 300.107 196.411C300.107 196.432 300.107 196.432 300.107 196.453C300.133 198.639 301.526 200.574 303.589 201.29L325.92 209.042C329.991 210.455 332.145 214.901 330.732 218.974C330.667 219.157 330.597 219.337 330.521 219.514C328.648 223.846 323.782 226.027 319.311 224.534L283.204 212.486L263.725 225.486C253.467 232.332 239.607 229.557 232.768 219.288C232.129 218.328 231.565 217.319 231.081 216.272C229.338 212.5 228.797 207.139 229.443 200.183C230.036 193.794 233.028 187.869 237.816 183.603L240.084 181.581ZM240.797 182.035C236.733 195.722 235.861 204.87 238.132 209.417C240.376 213.911 243.203 217.484 247.055 219.959C252.069 223.181 258.418 224.193 266.372 222.478C266.483 222.454 266.594 222.478 266.681 222.536L283.084 211.589L319.565 223.763C323.636 225.122 328.074 223.137 329.774 219.192C329.845 219.033 329.909 218.871 329.964 218.708C331.23 215.059 329.298 211.075 325.655 209.81L303.323 202.058C300.937 201.229 299.325 198.991 299.295 196.462C299.295 196.437 299.295 196.437 299.295 196.411C299.295 194.043 301.213 192.123 303.578 192.123H338.451L338.495 192.122C343.177 192.098 346.955 188.277 346.928 183.59C346.906 178.824 343.107 174.938 338.348 174.807L301.766 173.805C299.357 173.739 297.43 171.78 297.4 169.367V169.362C297.374 166.971 299.29 165.01 301.679 164.984L337.125 164.597C337.239 164.595 337.358 164.592 337.477 164.586C342.652 164.334 346.641 159.931 346.387 154.751C346.122 149.256 341.629 144.917 336.134 144.846L294.268 144.307C287.21 144.216 280.373 146.771 275.1 151.469L240.797 182.035Z" fill="#2D2522"/>
<path fill-rule="evenodd" clip-rule="evenodd" d="M421.043 153.9L421.048 155.002C421.075 160.621 425.633 165.162 431.257 165.162H438.955C432.594 165.652 428.443 167.729 426.505 171.394C423.457 177.167 425.666 184.318 431.441 187.367C433.141 188.266 435.036 188.735 436.957 188.735H440.308L439.393 189.184C432.957 192.345 430.294 200.127 433.455 206.567C433.645 206.956 433.856 207.334 434.083 207.702C437.163 211.988 443.134 212.968 447.415 209.89C447.702 209.685 447.978 209.464 448.238 209.228L454.214 203.845C457.516 200.872 459.064 196.42 458.328 192.04C458.279 191.721 458.225 191.432 458.171 191.174C457.863 189.594 456.78 187.246 454.923 184.129C456.19 181.6 456.547 178.529 456.006 174.917C455.465 171.304 453.933 168.143 451.405 165.434C452.639 162.279 452.818 158.757 451.946 154.866C451.605 153.326 451.129 152.013 450.517 150.927C449.402 148.936 447.388 147.612 445.115 147.374L430.007 145.787C425.547 145.319 421.552 148.555 421.086 153.014C421.054 153.308 421.043 153.605 421.043 153.9Z" fill="white"/>
<path d="M440.422 188.058L454.815 183.523C455.974 181.103 456.304 178.167 455.784 174.706C455.254 171.185 453.765 168.107 451.308 165.462V165.569L438.83 165.324C432.784 165.849 428.871 167.853 427.041 171.313C424.102 176.885 426.224 183.789 431.794 186.734C433.434 187.604 435.263 188.058 437.12 188.058H440.422ZM440.638 188.843L439.74 189.282C433.515 192.339 430.938 199.872 433.991 206.108C434.181 206.487 434.381 206.857 434.592 207.194C437.542 211.302 443.258 212.239 447.361 209.286C447.632 209.09 447.892 208.88 448.141 208.656L454.112 203.278C457.316 200.393 458.821 196.069 458.101 191.817C458.052 191.509 457.998 191.231 457.949 190.982C457.662 189.505 456.65 187.285 454.918 184.342L440.638 188.843ZM439.134 164.517L451.302 164.756C452.412 161.747 452.558 158.392 451.73 154.684C451.394 153.182 450.929 151.907 450.344 150.859C449.288 148.981 447.394 147.731 445.25 147.507L430.143 145.92C425.904 145.475 422.11 148.553 421.666 152.795C421.639 153.074 421.623 153.355 421.623 153.636L421.628 154.729C421.655 160.124 426.029 164.485 431.42 164.485H439.134V164.517ZM426.326 170.933C427.772 168.197 430.386 166.322 434.154 165.298H431.42C425.585 165.298 420.843 160.576 420.816 154.733L420.811 153.64C420.811 153.329 420.827 153.019 420.859 152.71C421.352 148.022 425.547 144.62 430.229 145.112L445.337 146.698C447.74 146.95 449.868 148.353 451.053 150.461C451.681 151.583 452.168 152.931 452.52 154.507C453.386 158.376 453.229 161.901 452.055 165.072C454.534 167.8 456.044 170.974 456.585 174.585C457.127 178.182 456.786 181.269 455.562 183.84C457.37 186.9 458.431 189.221 458.75 190.824C458.799 191.081 458.853 191.367 458.902 191.681C459.665 196.208 458.063 200.811 454.653 203.882L448.688 209.26C448.417 209.504 448.13 209.733 447.838 209.946C443.367 213.161 437.142 212.141 433.915 207.646C433.677 207.263 433.461 206.87 433.266 206.466C430.116 200.034 432.589 192.306 438.776 188.871H437.12C435.128 188.871 433.168 188.384 431.409 187.453C425.449 184.297 423.171 176.902 426.326 170.933ZM431.409 148.084C431.631 148.081 431.815 148.26 431.821 148.485C431.821 148.709 431.642 148.893 431.42 148.897C428.427 148.939 427.1 150.73 427.355 154.479C427.615 158.245 428.946 159.935 431.388 159.764C431.615 159.749 431.804 159.918 431.821 160.141C431.837 160.365 431.669 160.56 431.447 160.575C428.475 160.783 426.83 158.698 426.548 154.534C426.261 150.354 427.907 148.133 431.409 148.084ZM435.29 171.261C435.512 171.242 435.707 171.408 435.729 171.631C435.745 171.855 435.583 172.052 435.355 172.07C432.373 172.322 431.176 174.2 431.691 177.923C432.21 181.661 433.661 183.254 436.086 182.914C436.308 182.883 436.514 183.037 436.541 183.26C436.573 183.482 436.416 183.687 436.194 183.719C433.25 184.133 431.463 182.167 430.89 178.034C430.31 173.884 431.799 171.555 435.29 171.261ZM440.98 194.962C441.201 194.916 441.413 195.057 441.461 195.277C441.505 195.497 441.364 195.711 441.147 195.757C438.219 196.37 437.255 198.381 438.224 202.012C439.193 205.66 440.823 207.065 443.188 206.431C443.405 206.373 443.626 206.502 443.686 206.719C443.746 206.935 443.616 207.158 443.399 207.216C440.525 207.987 438.511 206.253 437.439 202.221C436.357 198.173 437.553 195.678 440.98 194.962Z" fill="#2D2522"/>
<path fill-rule="evenodd" clip-rule="evenodd" d="M89.2997 267.687L102.442 404.94H109.208L102.764 266.365C102.595 262.729 99.5103 259.918 95.8739 260.087C95.7624 260.092 95.6514 260.101 95.5404 260.111C91.7269 260.483 88.9343 263.873 89.2997 267.687Z" fill="white"/>
<path d="M88.8953 267.471L102.073 405.09H109.634L103.169 266.091C102.99 262.231 99.7154 259.246 95.8548 259.426C95.7368 259.432 95.6188 259.44 95.5008 259.452C91.4643 259.845 88.5088 263.433 88.8953 267.471ZM102.811 404.278L89.704 267.393C89.3597 263.802 91.9889 260.61 95.5799 260.26C95.6838 260.25 95.7883 260.242 95.8927 260.237C99.3051 260.078 102.2 262.716 102.359 266.129L108.783 404.278H102.811Z" fill="#2D2522"/>
<path d="M99.1249 408.901C99.0399 409.109 98.8029 409.209 98.5956 409.124C98.3877 409.039 98.2886 408.802 98.3736 408.594C103.73 395.498 106.848 386.347 107.725 381.164C107.763 380.943 107.972 380.794 108.193 380.831C108.414 380.869 108.563 381.078 108.526 381.3C107.635 386.559 104.503 395.752 99.1249 408.901ZM107.427 363.079C107.499 363.291 107.384 363.521 107.172 363.593C106.959 363.664 106.729 363.549 106.658 363.337C104.274 356.228 99.4578 350.163 92.1962 345.137C92.0122 345.01 91.9662 344.757 92.0934 344.572C92.2211 344.388 92.4739 344.342 92.6585 344.469C100.058 349.591 104.986 355.796 107.427 363.079ZM101.603 391.865C101.51 392.07 101.27 392.16 101.066 392.068C100.861 391.975 100.771 391.734 100.864 391.53C101.588 389.932 102.073 388.631 102.318 387.631C105.688 373.891 103.599 363.851 97.6331 356.715C97.4891 356.543 97.5119 356.287 97.684 356.143C97.8561 356 98.1122 356.022 98.2561 356.195C104.392 363.534 106.536 373.841 103.106 387.824C102.848 388.88 102.346 390.226 101.603 391.865ZM92.0333 260.977C92.0051 260.755 92.1622 260.552 92.3846 260.523C92.6071 260.495 92.8106 260.652 92.8388 260.875C96.3567 288.452 109.559 303.037 132.503 304.75C132.726 304.766 132.894 304.961 132.877 305.185C132.861 305.408 132.666 305.576 132.442 305.559C109.086 303.816 95.5972 288.915 92.0333 260.977ZM97.9774 260.559C97.9563 260.336 98.1203 260.138 98.3433 260.117C98.5669 260.096 98.765 260.259 98.7861 260.483C101.092 284.767 112.07 297.427 131.793 298.878C132.016 298.895 132.184 299.089 132.168 299.313C132.152 299.537 131.957 299.705 131.733 299.688C111.585 298.205 100.319 285.213 97.9774 260.559Z" fill="#2D2522"/>
<path fill-rule="evenodd" clip-rule="evenodd" d="M314.092 45.1308C313.047 45.1308 312.198 44.1602 312.198 42.9634C312.198 41.766 313.047 40.7955 314.092 40.7955C315.137 40.7955 315.987 41.766 315.987 42.9634C315.987 44.1602 315.137 45.1308 314.092 45.1308ZM330.873 45.1308C329.828 45.1308 328.978 44.1602 328.978 42.9634C328.978 41.766 329.828 40.7955 330.873 40.7955C331.917 40.7955 332.767 41.766 332.767 42.9634C332.767 44.1602 331.917 45.1308 330.873 45.1308ZM310.341 41.0585C310.195 41.2296 309.94 41.2507 309.773 41.1056C309.599 40.9606 309.578 40.7045 309.724 40.5329C309.789 40.4566 309.902 40.3294 310.065 40.1686C310.335 39.9023 310.633 39.636 310.963 39.387C311.927 38.6616 312.934 38.2216 313.951 38.2216C315.424 38.2216 316.225 38.5734 317.037 39.466C317.167 39.6068 317.297 39.7605 317.47 39.9716C317.519 40.0333 317.827 40.4198 317.925 40.5389C318.065 40.7132 318.038 40.9692 317.865 41.111C317.692 41.2523 317.437 41.2263 317.297 41.0526C317.199 40.9303 316.885 40.5432 316.837 40.4837C316.674 40.2839 316.555 40.1405 316.441 40.0133C315.781 39.2906 315.196 39.0346 313.951 39.0346C313.145 39.0346 312.29 39.4076 311.456 40.0366C311.153 40.2617 310.882 40.5037 310.639 40.7457C310.492 40.8891 310.39 40.999 310.341 41.0585ZM327.673 41.0472C327.533 41.2236 327.278 41.254 327.105 41.1154C326.927 40.9763 326.894 40.7208 327.035 40.5443C327.094 40.468 327.203 40.3408 327.354 40.1795C327.603 39.9126 327.885 39.6457 328.193 39.3962C329.092 38.6654 330.034 38.2216 330.992 38.2216C332.372 38.2216 333.135 38.5788 333.893 39.4768C334.012 39.6181 334.131 39.7719 334.288 39.983C334.337 40.0447 334.624 40.4312 334.716 40.5503C334.851 40.7294 334.813 40.9844 334.635 41.1197C334.456 41.255 334.202 41.2198 334.066 41.0407C333.974 40.9189 333.687 40.5313 333.644 40.4718C333.493 40.2726 333.379 40.1291 333.271 40.0019C332.664 39.2852 332.134 39.0346 330.992 39.0346C330.255 39.0346 329.471 39.4032 328.702 40.0273C328.426 40.252 328.171 40.4934 327.95 40.7348C327.814 40.8783 327.722 40.9876 327.673 41.0472ZM324.826 48.5177H328.02L324.447 39.3172C324.366 39.1082 324.469 38.8727 324.675 38.791C324.886 38.7098 325.119 38.8132 325.2 39.0227L328.989 48.777C329.097 49.0433 328.897 49.3308 328.615 49.3308H324.826C324.599 49.3308 324.42 49.1489 324.42 48.9242C324.42 48.6996 324.599 48.5177 324.826 48.5177ZM322.85 54.1597C322.65 54.2658 322.407 54.1911 322.298 53.9936C322.195 53.7954 322.271 53.5492 322.466 53.4431C323.938 52.6544 325.351 52.6544 326.661 53.455C326.851 53.5719 326.91 53.822 326.797 54.0136C326.677 54.2052 326.429 54.2653 326.234 54.1478C325.184 53.5031 324.074 53.5031 322.85 54.1597Z" fill="#2D2522"/>
<path fill-rule="evenodd" clip-rule="evenodd" d="M24.2227 292.216L45.8748 359.141L152.782 344.78V266.476L47.1691 287.622L45.8748 296.822L38.9483 289.267L24.2227 292.216Z" fill="white"/>
<path d="M39.2477 288.745C39.1519 288.64 39.0079 288.593 38.8688 288.621L24.1432 291.57C23.905 291.618 23.7616 291.862 23.8363 292.093L45.4884 359.018C45.549 359.205 45.7347 359.322 45.929 359.295L152.837 344.935C153.038 344.908 153.188 344.736 153.188 344.533V266.228C153.188 265.971 152.954 265.779 152.703 265.829L47.0896 286.975C46.9202 287.009 46.7908 287.146 46.767 287.317L45.5929 295.665L39.2477 288.745ZM38.8039 289.463L45.5756 296.849C45.8078 297.102 46.2289 296.971 46.2771 296.631L47.5308 287.715L152.376 266.723V344.178L46.1569 358.445L24.7494 292.276L38.8039 289.463Z" fill="#2D2522"/>
<path fill-rule="evenodd" clip-rule="evenodd" d="M0.40625 478.51H36.403C50.5819 441.571 63.5997 418.506 75.457 409.317C76.1575 408.774 71.9808 402.756 62.9269 391.265C68.7957 395.911 72.8555 398.892 75.1062 400.207C76.1661 400.826 76.2565 391.975 75.3769 373.654L85.0684 403.023C88.7585 401.168 91.5722 399.868 93.5106 399.123C120.756 388.646 143.13 415.107 160.632 478.51H526.554" fill="white"/>
<path d="M74.9014 400.429C75.2873 400.654 75.6359 400.445 75.8259 400.038C75.9493 399.774 76.0441 399.374 76.1215 398.823C76.2682 397.772 76.3521 396.137 76.3748 393.908C76.4149 389.965 76.2633 384.151 75.9196 376.465L84.6828 403.021C84.7607 403.257 85.0292 403.368 85.2506 403.257C88.9293 401.408 91.7327 400.112 93.6559 399.373C120.582 389.019 142.795 415.291 160.241 478.488C160.289 478.667 160.45 478.786 160.632 478.786H526.554C526.776 478.786 526.96 478.607 526.96 478.38C526.96 478.158 526.776 477.974 526.554 477.974H160.941C143.394 414.582 120.888 388.032 93.3647 398.615C91.4859 399.337 88.8015 400.572 85.3063 402.32L75.762 373.397C75.6143 372.949 74.9485 373.072 74.9712 373.544C75.4107 382.698 75.6078 389.484 75.5628 393.9C75.5401 396.096 75.4578 397.703 75.3171 398.71C75.2592 399.124 75.1921 399.429 75.1228 399.616C72.8574 398.26 68.8713 395.325 63.1784 390.818C62.8011 390.519 62.3096 391.009 62.6078 391.388C67.1299 397.127 70.4335 401.499 72.5159 404.499C73.5514 405.991 74.2832 407.141 74.7087 407.944C74.9133 408.33 75.0432 408.629 75.099 408.834C75.1098 408.873 75.1168 408.907 75.1212 408.934C63.2384 418.203 50.2547 441.209 36.1239 477.974H0.405978C0.181878 477.974 0 478.158 0 478.38C0 478.607 0.181878 478.786 0.405978 478.786H36.4027C36.5711 478.786 36.7216 478.683 36.7816 478.526C50.9351 441.653 63.9248 418.636 75.7052 409.508C76.371 408.993 75.5558 407.455 73.1827 404.036C71.4224 401.5 68.8014 397.999 65.3192 393.531C69.7952 397.012 72.9862 399.309 74.9014 400.429Z" fill="#2D2522"/>
<path d="M318.277 0.830444H302.899C295.992 0.830444 290.383 6.40209 290.314 13.3016L281.186 26.4747C281 26.7443 281.192 27.1129 281.52 27.1129H343.231C343.588 27.1129 343.767 26.6821 343.524 26.4244L330.316 12.7224C330.229 6.13955 324.87 0.830444 318.277 0.830444ZM291.054 13.6615C291.101 13.5933 291.126 13.5127 291.126 13.4298C291.126 6.92012 296.397 1.64348 302.899 1.64348H318.277C324.48 1.64348 329.509 6.67761 329.509 12.888C329.509 12.993 329.547 13.0942 329.623 13.17L342.273 26.2999H282.296L291.054 13.6615Z" fill="#2D2522"/>
<path fill-rule="evenodd" clip-rule="evenodd" d="M329.746 13.1587L290.544 13.7005L287.838 17.7652H334.119L329.746 13.1587Z" fill="#F15C2F"/>
<path d="M330.012 12.4815L290.811 13.0233C290.677 13.0255 290.553 13.0932 290.478 13.2041L287.772 17.2688C287.592 17.5389 287.785 17.9005 288.11 17.9005H334.391C334.749 17.9005 334.933 17.4729 334.684 17.2141L330.31 12.6076C330.234 12.5259 330.126 12.4799 330.012 12.4815ZM333.444 17.0875H288.869L291.035 13.8331L329.844 13.2967L333.444 17.0875Z" fill="#2D2522"/>
<path fill-rule="evenodd" clip-rule="evenodd" d="M219.906 467.814L215.305 490.034H233.168H302.455C298.459 481.59 293.768 475.722 288.381 472.42C282.994 469.124 273.16 467.586 258.88 467.814L266.187 429.885L222.342 430.155L221.8 458.601L219.906 467.814Z" fill="white"/>
<path fill-rule="evenodd" clip-rule="evenodd" d="M337.638 464.566V490.305L348.464 490.034H417.751C413.756 481.59 409.063 475.722 403.677 472.42C398.291 469.124 388.456 467.586 374.176 467.814L380.942 430.491L333.578 430.155L337.097 458.601L337.638 464.566Z" fill="white"/>
<path fill-rule="evenodd" clip-rule="evenodd" d="M221.8 458.877C225.944 459.543 229.192 462.162 231.543 466.731C233.895 471.3 235.158 477.438 235.332 485.157L216.387 484.886" fill="#F15C2F"/>
<path fill-rule="evenodd" clip-rule="evenodd" d="M337.639 458.877C345.033 460.631 349.905 463.792 352.254 468.355C354.603 472.924 355.686 478.526 355.502 485.157L337.639 484.886V458.877Z" fill="#F15C2F"/>
<path d="M235.262 429.939L238.276 409.154H231.813V408.342H238.394L240.005 397.232H234.249V396.42H265.645V397.232H259.351L257.293 408.342H263.209V409.154H257.142L253.312 429.825L266.678 429.744L260.691 460.82L262.759 455.153C262.845 454.914 262.954 454.682 263.082 454.465C264.256 452.468 266.829 451.796 268.829 452.971C269.166 453.166 269.469 453.415 269.728 453.707C271.086 455.245 270.944 457.583 269.41 458.942L259.788 467.467C261.599 467.013 266.046 465.87 272.579 464.171C272.796 464.117 273.018 464.246 273.075 464.463C273.131 464.679 273.001 464.901 272.784 464.956C268.025 466.195 264.592 467.083 262.327 467.662C274.824 467.716 283.572 469.27 288.592 472.344C294.054 475.695 298.794 481.622 302.82 490.132L303.095 490.711H214.805L219.506 468.003L221.393 458.828L221.942 430.02L235.262 429.939ZM236.083 429.933L243.935 429.884L247.108 409.154H239.096L236.083 429.933ZM244.757 429.879L252.485 429.83L256.316 409.154H247.929L244.757 429.879ZM259.222 468.485C259.187 468.496 259.152 468.496 259.115 468.496L249.959 468.761C249.735 468.772 249.547 468.593 249.541 468.371C249.534 468.144 249.711 467.96 249.935 467.949L258.112 467.711L248.212 458.942C246.679 457.583 246.537 455.245 247.895 453.707C248.153 453.415 248.457 453.166 248.794 452.971C250.794 451.796 253.367 452.468 254.541 454.465C254.669 454.682 254.777 454.914 254.864 455.153L258.812 465.979L258.938 465.627L265.693 430.561L222.739 430.826L222.211 458.568C230.638 461.074 235.47 469.746 235.732 484.48H298.865C295.669 479.262 292.101 475.446 288.167 473.037C282.905 469.816 273.249 468.29 259.222 468.485ZM259.723 465.843L259.586 466.558L268.872 458.335C270.07 457.274 270.181 455.445 269.12 454.249C268.918 454.021 268.681 453.826 268.418 453.669C266.805 452.722 264.729 453.263 263.782 454.876C263.679 455.055 263.591 455.239 263.522 455.429L259.723 465.843ZM299.353 485.292H216.756L215.802 489.899H301.809C301.017 488.264 300.198 486.727 299.353 485.292ZM216.924 484.48H234.92C234.662 470.152 230.045 461.821 222.108 459.386L220.302 468.171L216.924 484.48ZM254.101 455.429C254.031 455.239 253.944 455.055 253.84 454.876C252.894 453.263 250.818 452.722 249.205 453.669C248.942 453.826 248.705 454.021 248.503 454.249C247.442 455.445 247.553 457.274 248.75 458.335L258.218 466.72L254.101 455.429ZM258.525 397.232H249.754L248.053 408.342H256.467L258.525 397.232ZM248.932 397.232H240.825L239.214 408.342H247.232L248.932 397.232Z" fill="#2D2522"/>
<path fill-rule="evenodd" clip-rule="evenodd" d="M218.281 140.776H209.35L219.093 125.333" fill="#F15C2F"/>
<path d="M343.095 429.803L340.096 409.154H334.932V408.342H339.982L338.369 397.232H333.308V396.42H366.057V397.232H359.063L360.184 408.342H366.328V409.154H360.265L362.355 429.912L381.425 430.02L375.248 465.816L379.14 455.153C379.227 454.914 379.335 454.682 379.465 454.465C380.634 452.468 383.211 451.796 385.208 452.971C385.549 453.166 385.853 453.415 386.107 453.707C387.466 455.245 387.325 457.583 385.793 458.942L376.602 467.083C378.891 466.504 382.74 465.508 387.877 464.171C388.094 464.117 388.316 464.246 388.375 464.463C388.429 464.679 388.299 464.901 388.083 464.956C383.325 466.195 379.893 467.083 377.63 467.657C390.27 467.695 399.104 469.248 404.16 472.344C409.621 475.695 414.363 481.622 418.39 490.132L418.661 490.711H337.238L337.233 490.31L336.967 458.925L333.113 429.744L343.095 429.803ZM343.912 429.809L352.064 429.852L350.235 409.154H340.919L343.912 429.809ZM352.882 429.857L361.537 429.906L359.448 409.154H351.047L352.882 429.857ZM337.72 458.476C349.482 460.847 355.55 469.557 355.902 484.48H414.434C411.24 479.262 407.673 475.446 403.737 473.037C398.492 469.827 388.889 468.301 374.945 468.485C374.891 468.496 374.837 468.496 374.783 468.485C374.685 468.49 374.588 468.49 374.491 468.49C374.469 468.496 374.442 468.496 374.415 468.496L365.256 468.761C365.034 468.772 364.845 468.593 364.839 468.371C364.834 468.144 365.007 467.96 365.234 467.949L373.413 467.711L363.513 458.942C361.976 457.583 361.835 455.245 363.194 453.707C363.453 453.415 363.757 453.166 364.092 452.971C366.095 451.796 368.666 452.468 369.841 454.465C369.965 454.682 370.074 454.914 370.16 455.153L374.307 466.515L380.461 430.826L334.044 430.561L337.72 458.476ZM337.779 459.315L337.996 484.48H355.085C354.744 470.011 348.984 461.664 337.779 459.315ZM414.921 485.292H338.001L338.039 489.899H417.378C416.588 488.264 415.765 486.727 414.921 485.292ZM369.402 455.429C369.332 455.239 369.24 455.055 369.137 454.876C368.19 453.263 366.117 452.722 364.504 453.669C364.238 453.826 364.006 454.021 363.8 454.249C362.739 455.445 362.853 457.274 364.049 458.335L373.516 466.72L369.402 455.429ZM379.904 455.429L375.784 466.72L385.252 458.335C386.453 457.274 386.562 455.445 385.501 454.249C385.301 454.021 385.062 453.826 384.797 453.669C383.184 452.722 381.111 453.263 380.164 454.876C380.061 455.055 379.974 455.239 379.904 455.429ZM358.246 397.232H349.991L350.976 408.342H359.367L358.246 397.232ZM349.174 397.232H339.192L340.8 408.342H350.159L349.174 397.232Z" fill="#2D2522"/>
<path d="M78.9805 321.199L79.7794 326.243L75.1383 326.978L75.7375 330.761L69.7713 331.705L69.172 327.923L52.797 330.516L51.998 325.472L66.092 308.476L72.0588 307.532L74.3399 321.934L78.9805 321.199ZM58.4287 324.454L68.3731 322.878L67.0382 314.45L58.4287 324.454ZM95.5796 327.958C86.3644 329.418 81.3162 325.863 80.0918 318.131C78.8722 310.432 82.5801 305.525 91.7953 304.065C100.977 302.611 106.059 306.161 107.273 313.826C108.492 321.525 104.761 326.504 95.5796 327.958ZM94.786 322.947C100.023 322.118 101.995 319.118 101.306 314.771C100.623 310.457 97.826 308.247 92.5889 309.076C87.3517 309.906 85.3695 312.839 86.058 317.186C86.752 321.566 89.5484 323.777 94.786 322.947ZM136.658 312.064L137.456 317.107L132.815 317.843L133.415 321.625L127.448 322.57L126.849 318.788L110.474 321.381L109.675 316.337L123.769 299.341L129.735 298.396L132.016 312.798L136.658 312.064ZM116.106 315.318L126.05 313.743L124.715 305.315L116.106 315.318Z" fill="#F15C2F"/>
<path d="M79.5776 320.468L80.5038 326.314L75.8632 327.049L76.4624 330.832L69.6939 331.904L69.0947 328.121L52.7197 330.714L51.8281 325.088L66.137 307.833L72.6559 306.801L74.937 321.203L79.5776 320.468ZM74.262 322.132L71.9809 307.73L66.5668 308.587L52.6877 325.324L53.3947 329.785L69.7697 327.192L70.3684 330.975L75.533 330.157L74.9343 326.374L79.5749 325.639L78.9031 321.397L74.262 322.132ZM57.6591 324.762L67.5617 313.255L69.0974 322.95L57.6591 324.762ZM68.1685 322.275L67.0339 315.113L59.7182 323.613L68.1685 322.275ZM95.9028 328.093C86.6389 329.56 81.235 326.039 79.9505 317.929C78.672 309.855 82.7236 304.866 91.9918 303.398C101.225 301.936 106.66 305.454 107.934 313.496C109.213 321.575 105.133 326.631 95.9028 328.093ZM95.7761 327.291C104.58 325.897 108.338 321.24 107.132 313.623C105.932 306.045 100.927 302.805 92.1185 304.2C83.2758 305.601 79.5473 310.191 80.7528 317.801C81.9642 325.45 86.9372 328.691 95.7761 327.291ZM95.1092 323.082C89.8169 323.92 86.6714 321.744 85.9173 316.984C85.1687 312.26 87.4904 309.248 92.7854 308.409C98.0674 307.572 101.222 309.738 101.967 314.442C102.718 319.181 100.39 322.246 95.1092 323.082ZM94.982 322.28C99.8273 321.513 101.844 318.858 101.165 314.568C100.492 310.318 97.7611 308.443 92.9121 309.211C88.0506 309.981 86.0429 312.586 86.719 316.856C87.4016 321.166 90.1249 323.049 94.982 322.28ZM137.255 311.333L138.181 317.179L133.54 317.914L134.139 321.697L127.37 322.769L126.771 318.986L110.397 321.579L109.505 315.953L123.814 298.698L130.333 297.666L132.614 312.068L137.255 311.333ZM131.939 312.997L129.658 298.595L124.244 299.452L110.365 316.188L111.071 320.65L127.446 318.057L128.045 321.84L133.21 321.022L132.611 317.239L137.252 316.504L136.58 312.262L131.939 312.997ZM115.336 315.627L125.239 304.119L126.774 313.815L115.336 315.627ZM125.846 313.14L124.711 305.977L117.395 314.478L125.846 313.14Z" fill="#2D2522"/>
<path d="M218.987 124.897C219.036 124.712 219.078 124.54 219.112 124.381L219.556 115.011C220.292 99.4788 233.085 87.2637 248.619 87.2637H279.177V88.0767H248.619C233.519 88.0767 221.083 99.9508 220.367 115.05L220.238 117.774C221.673 112.264 224.441 107.335 228.544 103.102C234.73 96.7219 242.391 99.9021 251.359 112.36C251.49 112.542 251.449 112.796 251.267 112.927C251.085 113.059 250.831 113.017 250.7 112.835C241.984 100.728 234.85 97.7661 229.127 103.668C223.741 109.224 220.718 115.998 220.038 123.742C220.019 123.958 219.98 124.206 219.92 124.488L218.686 150.55L217.875 150.512L218.329 140.912H209.619C209.3 140.912 209.106 140.559 209.276 140.289L218.987 124.897ZM218.368 140.099L219.018 126.369L210.356 140.099H218.368Z" fill="#2D2522"/>
<path d="M338.808 161.275C338.586 161.267 338.407 161.078 338.418 160.854C338.423 160.629 338.613 160.454 338.84 160.463C341.828 160.577 343.252 158.859 343.187 155.101C343.127 151.327 341.888 149.569 339.441 149.612C339.214 149.616 339.03 149.437 339.024 149.213C339.024 148.988 339.203 148.803 339.425 148.799C342.402 148.747 343.934 150.916 343.999 155.088C344.069 159.278 342.304 161.409 338.808 161.275ZM337.942 189.864C337.72 189.844 337.552 189.647 337.573 189.423C337.595 189.199 337.79 189.034 338.017 189.055C340.994 189.326 342.505 187.684 342.64 183.928C342.775 180.156 341.628 178.336 339.181 178.25C338.959 178.242 338.781 178.054 338.791 177.83C338.797 177.605 338.986 177.43 339.208 177.438C342.185 177.542 343.604 179.787 343.452 183.957C343.3 188.145 341.428 190.181 337.942 189.864ZM320.198 221.5C319.992 221.409 319.894 221.17 319.986 220.964C320.078 220.759 320.317 220.665 320.522 220.755C323.278 221.964 325.118 221.171 326.233 218.284C327.354 215.378 326.764 213.585 324.463 212.701C324.252 212.62 324.149 212.385 324.23 212.176C324.311 211.966 324.544 211.861 324.755 211.942C327.516 213.001 328.263 215.281 326.991 218.577C325.713 221.892 323.38 222.896 320.198 221.5ZM290.964 113.306L291.749 113.515C290.268 119.076 287.178 122.357 282.505 123.292L282.346 122.496C286.695 121.625 289.559 118.584 290.964 113.306Z" fill="#2D2522"/>
<path d="M245.496 124.083L246.579 128.147C246.636 128.364 246.859 128.493 247.075 128.435C247.292 128.377 247.421 128.154 247.363 127.937L246.281 123.873C246.223 123.656 246 123.527 245.784 123.585C245.567 123.643 245.438 123.866 245.496 124.083Z" fill="#2D2522"/>
<path d="M245.796 124.374L249.314 125.187C249.532 125.237 249.751 125.101 249.801 124.882C249.851 124.664 249.715 124.445 249.497 124.395L245.978 123.582C245.759 123.532 245.542 123.668 245.491 123.887C245.441 124.105 245.577 124.324 245.796 124.374Z" fill="#2D2522"/>
<path d="M398.573 126.947C395.839 123.642 391.081 123.293 387.157 125.877C385.625 126.883 384.515 128.317 383.99 129.955C382.669 134.083 387.855 144.633 399.553 161.868C399.677 162.054 399.932 162.102 400.116 161.976C400.3 161.85 400.348 161.597 400.224 161.412C388.716 144.456 383.563 133.965 384.764 130.203C385.23 128.745 386.226 127.461 387.601 126.555C391.2 124.187 395.493 124.502 397.95 127.466C398.091 127.638 398.351 127.662 398.519 127.519C398.692 127.376 398.719 127.119 398.573 126.947Z" fill="#2D2522"/>
</svg>
