<svg width="64" height="64" viewBox="0 0 64 64" fill="none" xmlns="http://www.w3.org/2000/svg">
<circle cx="32" cy="32" r="32" fill="#FFFAD0"/>
<path d="M29.1744 34.7103C31.032 35.1236 32.9563 35.1367 34.8193 34.7487C35.8054 31.5881 36.3208 28.2995 36.3489 24.9887C36.3489 19.7151 34.6017 16.1695 32.0032 16.1631H31.9904C29.3984 16.1695 27.6512 19.7151 27.6512 24.9887C27.6781 28.2865 28.1914 31.5623 29.1744 34.7103Z" fill="#CCB800"/>
<path d="M26.6912 24.9888C26.6912 21.1552 27.5488 18.192 29.0208 16.5664C24.784 17.7504 21.9424 21.4688 21.9424 26.2688C21.9664 28.1833 22.3417 30.0771 23.0496 31.856C24.5539 33.0119 26.2564 33.8837 28.0736 34.4288C27.1868 31.3594 26.7217 28.1836 26.6912 24.9888Z" fill="#CCB800"/>
<path d="M28.3809 35.5233C26.7863 35.122 25.261 34.4834 23.8561 33.6289C24.6535 35.1813 25.7315 36.5727 27.0356 37.7326L28.1876 42.1486H27.1444C27.0214 42.155 26.9055 42.2083 26.8207 42.2976C26.7359 42.3869 26.6886 42.5054 26.6886 42.6286C26.6886 42.7518 26.7359 42.8703 26.8207 42.9596C26.9055 43.0489 27.0214 43.1022 27.1444 43.1086H36.8545C36.9775 43.1022 37.0934 43.0489 37.1782 42.9596C37.263 42.8703 37.3103 42.7518 37.3103 42.6286C37.3103 42.5054 37.263 42.3869 37.1782 42.2976C37.0934 42.2083 36.9775 42.155 36.8545 42.1486H35.8106L36.9627 37.7326C38.2261 36.6136 39.2768 35.2753 40.0641 33.7825C38.6843 34.5874 37.1945 35.1868 35.6417 35.5617C33.2757 36.2999 30.739 36.2865 28.3809 35.5233ZM34.8193 42.146H29.1841L28.267 38.6414C29.3712 39.3832 30.6714 39.7793 32.0017 39.7793C33.332 39.7793 34.6321 39.3832 35.7364 38.6414L34.8193 42.146Z" fill="#CCB800"/>
<path d="M34.9727 16.5601C36.4447 18.1857 37.3087 21.1489 37.3087 24.9889C37.2785 28.204 36.8069 31.3997 35.9071 34.4865C37.6959 33.9763 39.3782 33.1481 40.8735 32.0417C41.6283 30.2092 42.03 28.2505 42.0575 26.2689C42.0575 21.4625 39.2095 17.7441 34.9727 16.5601Z" fill="#CCB800"/>
<path d="M27.8817 46.2496C27.8817 46.6706 28.0489 47.0743 28.3466 47.3719C28.6443 47.6696 29.048 47.8368 29.4689 47.8368H34.5313C34.9523 47.8368 35.356 47.6696 35.6536 47.3719C35.9513 47.0743 36.1185 46.6706 36.1185 46.2496V43.9392H27.8817V46.2496Z" fill="#CCB800"/>
</svg>
