<svg width="20" height="15" viewBox="0 0 20 15" fill="none" xmlns="http://www.w3.org/2000/svg">
<path d="M0.403665 1.17626C3.05663 3.42303 7.71176 7.37579 9.07996 8.60827C9.26364 8.77461 9.46064 8.85918 9.66515 8.85918C9.86925 8.85918 10.0659 8.7754 10.2492 8.60985C11.6185 7.37617 16.2737 3.42303 18.9267 1.17626C19.0918 1.03665 19.117 0.791246 18.9833 0.620561C18.6742 0.226146 18.2133 0 17.7193 0H1.611C1.11706 0 0.656125 0.226146 0.347034 0.620599C0.21331 0.791246 0.238492 1.03665 0.403665 1.17626Z" fill="#F15C2F"/>
<path d="M19.0964 2.39423C18.9537 2.32779 18.7857 2.35097 18.667 2.45245C15.7249 4.94655 11.97 8.14347 10.7886 9.20802C10.1255 9.80657 9.20523 9.80657 8.54061 9.20723C7.28137 8.07265 3.06471 4.48799 0.663034 2.45241C0.543467 2.35093 0.375161 2.32854 0.233583 2.3942C0.0912512 2.4603 0 2.60267 0 2.75958V12.8871C0 13.7755 0.722421 14.4979 1.61085 14.4979H17.7192C18.6076 14.4979 19.33 13.7755 19.33 12.8871V2.75958C19.33 2.60267 19.2387 2.45993 19.0964 2.39423Z" fill="#F15C2F"/>
</svg>
