<svg width="20" height="20" viewBox="0 0 20 20" fill="none" xmlns="http://www.w3.org/2000/svg">
<path d="M17.8417 9.65033L10.3417 2.15033C10.0417 1.85033 9.62502 1.66699 9.16669 1.66699H3.33335C2.41669 1.66699 1.66669 2.41699 1.66669 3.33366V9.16699C1.66669 9.62533 1.85002 10.042 2.15835 10.3503L9.65836 17.8503C9.95835 18.1503 10.375 18.3337 10.8334 18.3337C11.2917 18.3337 11.7084 18.1503 12.0084 17.842L17.8417 12.0087C18.15 11.7087 18.3334 11.292 18.3334 10.8337C18.3334 10.3753 18.1417 9.95033 17.8417 9.65033ZM4.58335 5.83366C3.89169 5.83366 3.33335 5.27533 3.33335 4.58366C3.33335 3.89199 3.89169 3.33366 4.58335 3.33366C5.27502 3.33366 5.83335 3.89199 5.83335 4.58366C5.83335 5.27533 5.27502 5.83366 4.58335 5.83366Z" fill="white"/>
</svg>
