<svg width="24" height="25" viewBox="0 0 24 25" fill="none" xmlns="http://www.w3.org/2000/svg">
<path d="M18.9975 20.498C10.4659 20.5101 3.99088 13.9575 4.00001 5.50056C4.00001 4.94827 4.44773 4.49805 5.00001 4.49805H7.63937C8.13494 4.49805 8.55593 4.86218 8.6287 5.35238C8.80311 6.52724 9.14517 7.67101 9.64448 8.74875L9.74725 8.97055C9.89013 9.27895 9.79328 9.64539 9.51668 9.84292C8.6993 10.4266 8.38692 11.6016 9.0237 12.5184C9.82278 13.6689 10.8301 14.6759 11.9803 15.4747C12.897 16.1113 14.0718 15.7989 14.6555 14.9817C14.8532 14.7049 15.2198 14.608 15.5284 14.751L15.7492 14.8533C16.827 15.3525 17.9708 15.6946 19.1458 15.869C19.636 15.9418 20 16.3627 20 16.8583V19.498C20 20.0503 19.5512 20.498 18.9989 20.498L18.9975 20.498Z" fill="#F15C2F"/>
</svg>
