<svg width="64" height="64" viewBox="0 0 64 64" fill="none" xmlns="http://www.w3.org/2000/svg">
<circle cx="32" cy="32" r="32" fill="#D7FFD0"/>
<path d="M31.9999 18.5023C33.7132 18.4973 35.4044 18.8894 36.9407 19.6479C37.0162 19.2884 37.0142 18.9169 36.9347 18.5582C36.8552 18.1995 36.7002 17.8619 36.4799 17.5679C35.7183 16.6911 34.0479 16.1599 32.0127 16.1599H31.9999C30.4255 16.1599 28.4159 16.5311 27.5135 17.5679C27.2921 17.8626 27.1364 18.2013 27.0569 18.5612C26.9774 18.9211 26.976 19.2938 27.0527 19.6543C28.5897 18.8908 30.2837 18.4964 31.9999 18.5023Z" fill="#1CBC00"/>
<path d="M19.6734 44.3457L20.499 34.6433L19.1742 35.5201C18.9475 35.6741 18.7584 35.8772 18.6211 36.1143C18.4837 36.3514 18.4015 36.6165 18.3806 36.8897L17.875 43.7121C17.8553 43.9616 17.8875 44.2125 17.9697 44.4488C18.0518 44.6852 18.1821 44.902 18.3524 45.0855C18.5226 45.2689 18.729 45.4151 18.9586 45.5147C19.1882 45.6143 19.436 45.6651 19.6862 45.6641H19.7758C19.668 45.2335 19.6334 44.7878 19.6734 44.3457Z" fill="#1CBC00"/>
<path d="M45.6192 36.8897C45.5984 36.6157 45.5156 36.35 45.377 36.1127C45.2384 35.8754 45.0477 35.6728 44.8192 35.5201L43.5072 34.6433L44.3328 44.3457C44.3717 44.7885 44.3328 45.2347 44.2176 45.6641H44.3136C44.5639 45.6651 44.8116 45.6143 45.0412 45.5147C45.2708 45.4151 45.4772 45.2689 45.6474 45.0855C45.8177 44.902 45.948 44.6852 46.0301 44.4488C46.1123 44.2125 46.1445 43.9616 46.1248 43.7121L45.6192 36.8897Z" fill="#1CBC00"/>
<path d="M37.0279 37.5874H26.9696C26.8423 37.5874 26.7202 37.638 26.6302 37.728C26.5402 37.818 26.4896 37.9401 26.4896 38.0674C26.4896 38.1947 26.5402 38.3168 26.6302 38.4068C26.7202 38.4968 26.8423 38.5474 26.9696 38.5474H27.4298V39.7538C27.4298 39.8811 27.4804 40.0032 27.5704 40.0932C27.6604 40.1832 27.7825 40.2338 27.9098 40.2338C28.0371 40.2338 28.1592 40.1832 28.2492 40.0932C28.3392 40.0032 28.3898 39.8811 28.3898 39.7538V38.5474H37.0298C37.1571 38.5474 37.2792 38.4968 37.3692 38.4068C37.4592 38.3168 37.5098 38.1947 37.5098 38.0674C37.5098 37.9401 37.4592 37.818 37.3692 37.728C37.2792 37.638 37.1571 37.5874 37.0298 37.5874H37.0279Z" fill="#1CBC00"/>
<path d="M31.9998 19.3344C29.4428 19.3208 26.9751 20.2743 25.0915 22.0036C23.2079 23.7329 22.0475 26.1103 21.843 28.6592L20.499 44.416C20.4623 44.8512 20.5162 45.2893 20.6574 45.7026C20.7986 46.1159 21.0239 46.4954 21.3192 46.8172C21.6145 47.1389 21.9734 47.396 22.3731 47.572C22.7728 47.7481 23.2046 47.8393 23.6414 47.84H40.3518C40.7891 47.8402 41.2216 47.7496 41.6221 47.5739C42.0225 47.3983 42.3821 47.1414 42.6782 46.8195C42.9742 46.4976 43.2001 46.1178 43.3417 45.7041C43.4832 45.2903 43.5373 44.8517 43.5006 44.416L42.1566 28.6592C41.952 26.1103 40.7917 23.7329 38.908 22.0036C37.0244 20.2743 34.5568 19.3208 31.9998 19.3344ZM27.0142 26.1696C27.0149 25.6894 27.2059 25.2291 27.5454 24.8896C27.8849 24.5501 28.3452 24.359 28.8254 24.3584H35.1742C35.4116 24.3588 35.6466 24.406 35.8658 24.4972C36.085 24.5885 36.2841 24.722 36.4517 24.8902C36.6193 25.0584 36.7521 25.2579 36.8426 25.4774C36.933 25.697 36.9794 25.9321 36.979 26.1696V28.192C36.9794 28.4294 36.933 28.6646 36.8426 28.8841C36.7521 29.1036 36.6193 29.3032 36.4517 29.4714C36.2841 29.6395 36.085 29.7731 35.8658 29.8643C35.6466 29.9556 35.4116 30.0028 35.1742 30.0032H28.8254C28.3452 30.0025 27.8849 29.8115 27.5454 29.4719C27.2059 29.1324 27.0149 28.6721 27.0142 28.192V26.1696ZM39.315 42.9888C39.3151 43.2351 39.2668 43.479 39.1726 43.7066C39.0784 43.9342 38.9403 44.141 38.7661 44.3151C38.592 44.4893 38.3852 44.6274 38.1576 44.7216C37.93 44.8158 37.6861 44.8641 37.4398 44.864H26.5598C26.0616 44.8647 25.5836 44.6675 25.2308 44.3159C24.878 43.9642 24.6792 43.4869 24.6782 42.9888V37.3696C24.6804 36.8718 24.8795 36.3951 25.2321 36.0438C25.5847 35.6924 26.062 35.4949 26.5598 35.4944H37.4398C37.9369 35.495 38.4135 35.6928 38.765 36.0444C39.1165 36.3959 39.3143 36.8724 39.315 37.3696V42.9888Z" fill="#1CBC00"/>
</svg>
