<svg width="64" height="64" viewBox="0 0 64 64" fill="none" xmlns="http://www.w3.org/2000/svg">
<circle cx="32" cy="32" r="32" fill="#FFDBD0"/>
<path d="M43.0912 16.1599H20.9088C20.4932 16.1606 20.0947 16.326 19.8008 16.6199C19.5069 16.9138 19.3415 17.3123 19.3408 17.7279V46.2719C19.3415 46.6876 19.5069 47.086 19.8008 47.3799C20.0947 47.6738 20.4932 47.8392 20.9088 47.8399H43.0912C43.5069 47.8392 43.9053 47.6738 44.1992 47.3799C44.4931 47.086 44.6585 46.6876 44.6592 46.2719V17.7279C44.6585 17.3123 44.4931 16.9138 44.1992 16.6199C43.9053 16.326 43.5069 16.1606 43.0912 16.1599ZM32.608 20.9343C32.614 20.9244 32.6183 20.9136 32.6208 20.9023C32.8192 20.9215 33.0176 20.9471 33.216 20.9791C34.2136 21.1518 35.1639 21.5321 36.0051 22.0955C36.8463 22.6589 37.5598 23.3927 38.0992 24.2495C38.0288 24.3263 37.9392 24.4159 37.8432 24.5247C37.7472 24.6335 37.5808 24.8127 37.4784 24.9151C37.4208 24.8959 37.3696 24.8831 37.3184 24.8703C37.0829 24.7743 36.8302 24.7276 36.5759 24.7331C36.3216 24.7386 36.0712 24.7962 35.84 24.9023C35.7021 24.9981 35.5867 25.1227 35.5016 25.2674C35.4165 25.4122 35.3639 25.5736 35.3472 25.7407C35.333 25.827 35.3072 25.911 35.2704 25.9903C35.2143 26.0288 35.1458 26.0448 35.0784 26.0351C35.0723 25.8962 35.0788 25.7569 35.0976 25.6191C35.136 25.2543 35.2128 24.5759 34.5792 24.3263C34.4308 24.273 34.2757 24.2407 34.1184 24.2303H34.0672V24.2047C34.0672 24.1919 34.0736 24.1151 34.0736 24.1023C34.0736 23.8335 34.0736 23.1167 33.4976 22.8543C33.2084 22.7537 32.8926 22.7605 32.608 22.8735C32.5755 22.8798 32.5434 22.8884 32.512 22.8991C32.5248 22.8287 32.5504 22.7519 32.5632 22.6943C32.6156 22.5366 32.65 22.3734 32.6656 22.2079C32.701 21.9988 32.6625 21.7838 32.5568 21.5999C32.5225 21.5367 32.477 21.4803 32.4224 21.4335C32.48 21.2735 32.5568 21.0687 32.608 20.9343ZM31.6032 20.8831C31.3664 21.5103 31.3152 21.7599 31.584 21.9839L31.6864 22.0671C31.6992 22.0735 31.7056 22.0735 31.712 22.0799V22.1247C31.6968 22.2309 31.6732 22.3358 31.6416 22.4383C31.5527 22.63 31.5182 22.8424 31.5419 23.0524C31.5656 23.2623 31.6466 23.4617 31.776 23.6287C31.9221 23.7605 32.1037 23.8465 32.2983 23.8761C32.4928 23.9057 32.6917 23.8775 32.8704 23.7951C32.9392 23.772 33.0099 23.7549 33.0816 23.7439C33.1071 23.8638 33.1179 23.9863 33.1136 24.1087C33.0795 24.295 33.095 24.487 33.1584 24.6655C33.2363 24.8285 33.3603 24.965 33.515 25.0583C33.6697 25.1516 33.8483 25.1975 34.0288 25.1903C34.0739 25.1911 34.1188 25.1954 34.1632 25.2031C34.166 25.308 34.1596 25.4129 34.144 25.5167C34.0592 25.8929 34.1161 26.2872 34.304 26.6239C34.3778 26.7261 34.4725 26.8114 34.5817 26.8743C34.6909 26.9372 34.8122 26.9762 34.9376 26.9887C35.274 27.0217 35.6109 26.9307 35.8848 26.7327C36.1006 26.5241 36.2402 26.2492 36.2816 25.9519C36.3024 25.8785 36.3174 25.8036 36.3264 25.7279C36.5749 25.6698 36.8357 25.6945 37.0688 25.7983C37.1968 25.8303 37.3248 25.8687 37.4656 25.8943C37.8304 25.9519 38.1056 25.6639 38.5536 25.1775C38.56 25.1647 38.5728 25.1583 38.5792 25.1455C38.8309 25.6959 39.0094 26.2768 39.1104 26.8735C39.2783 27.861 39.2387 28.8726 38.9943 29.844C38.7499 30.8153 38.3059 31.7252 37.6907 32.5156C37.0754 33.306 36.3024 33.9597 35.4207 34.4351C34.5391 34.9105 33.5681 35.1971 32.5696 35.2767C32.6387 35.1591 32.6823 35.0283 32.6976 34.8927C32.7156 34.7942 32.7434 34.6977 32.7808 34.6047C32.9085 34.3468 33.0771 34.1112 33.28 33.9071L33.3824 33.7919C33.5488 33.6127 33.7152 33.4335 33.8752 33.2543C33.9712 33.1519 34.0288 33.0943 34.0288 33.0879C34.0996 33.1063 34.1682 33.1321 34.2336 33.1647C34.382 33.2522 34.551 33.2983 34.7232 33.2983C34.8954 33.2983 35.0645 33.2522 35.2128 33.1647C35.3147 33.0961 35.3859 32.9905 35.4112 32.8703C35.4362 32.5838 35.3923 32.2955 35.2832 32.0294C35.1741 31.7633 35.0029 31.5272 34.784 31.3407C34.2157 30.6012 33.3785 30.1159 32.4544 29.9903C32.3242 29.9849 32.1937 29.9892 32.064 30.0031C31.9236 30.0209 31.7814 30.0188 31.6416 29.9967C31.4961 29.9481 31.3582 29.8791 31.232 29.7919C30.9831 29.6177 30.6992 29.4998 30.4 29.4463C29.8861 29.4323 29.385 29.6077 28.992 29.9391L28.9088 29.9903C28.5952 30.2079 28.3264 30.2911 28.1664 30.2207C28.1342 30.211 28.1039 30.1959 28.0768 30.1759C27.9022 30.0627 27.6957 30.0089 27.488 30.0223C27.2627 30.0625 27.0609 30.1864 26.9232 30.3692C26.7855 30.5521 26.722 30.7802 26.7456 31.0079C26.7456 31.1106 26.7521 31.2132 26.7648 31.3151C26.7701 31.3799 26.7808 31.4441 26.7968 31.5071C26.5985 31.7826 26.3757 32.0397 26.1312 32.2751C25.4981 31.3926 25.0755 30.3767 24.896 29.3055C24.8768 29.1775 24.8576 29.0431 24.8448 28.9151C25.2855 29.1264 25.7599 29.2586 26.2464 29.3055C26.378 29.3094 26.5082 29.2784 26.624 29.2159C26.7931 29.0995 26.9247 28.9366 27.0031 28.7469C27.0815 28.5572 27.1032 28.3489 27.0656 28.1471C27.0657 28.0508 27.0593 27.9546 27.0464 27.8591C27.0464 27.8591 27.1552 27.8143 27.5136 27.9167L27.5904 27.9359C27.7577 28.0076 27.9409 28.0341 28.1216 28.0127C28.3079 27.9777 28.4794 27.8876 28.614 27.7541C28.7487 27.6206 28.8402 27.4499 28.8768 27.2639C28.897 27.2029 28.9205 27.1431 28.9472 27.0847C29.072 27.1121 29.1941 27.1507 29.312 27.1999C29.6862 27.3885 30.1163 27.434 30.5216 27.3279C30.6444 27.2795 30.7553 27.2053 30.847 27.1104C30.9386 27.0154 31.0088 26.9019 31.0528 26.7775C31.1197 26.6134 31.1525 26.4375 31.1492 26.2603C31.1459 26.0832 31.1066 25.9086 31.0336 25.7471C30.8804 25.4591 30.628 25.2363 30.3232 25.1199C30.242 25.0793 30.1629 25.0345 30.0864 24.9855C30.0288 24.7935 30.1504 24.5567 30.3488 24.1983C30.4256 24.0639 30.5088 23.9231 30.5728 23.7823C30.8672 23.1167 30.4064 21.8943 30.0544 21.1455C30.5599 21.0033 31.0791 20.9153 31.6032 20.8831ZM27.7184 31.1999C27.717 31.1549 27.7128 31.11 27.7056 31.0655C27.7376 31.0847 27.7632 31.0975 27.7888 31.1103C28.068 31.2061 28.3674 31.227 28.6572 31.1709C28.9469 31.1147 29.2169 30.9835 29.44 30.7903L29.5168 30.7391C29.7324 30.5573 29.9935 30.4378 30.272 30.3935C30.4366 30.4401 30.5923 30.5136 30.7328 30.6111C30.9378 30.7483 31.1621 30.854 31.3984 30.9247C31.6361 30.9746 31.88 30.9876 32.1216 30.9631C32.2194 30.9526 32.3177 30.9483 32.416 30.9503C33.0851 31.0817 33.6822 31.4555 34.0928 31.9999C34.144 32.0575 34.1888 32.1023 34.2272 32.1535C34.1326 32.134 34.0356 32.1275 33.9392 32.1343C33.6308 32.1979 33.3544 32.3678 33.1584 32.6143C32.9984 32.7935 32.8384 32.9663 32.6464 33.1775L32.5632 33.2735C32.2837 33.5557 32.0562 33.885 31.8912 34.2463C31.8253 34.409 31.778 34.5786 31.7504 34.7519C31.7376 34.8735 31.5264 35.0719 31.2768 35.2575C31.1104 35.2447 30.9504 35.2191 30.784 35.1935C29.2332 34.9339 27.8126 34.1662 26.7456 33.0111C27.1433 32.6629 27.4732 32.2442 27.7184 31.7759C27.7506 31.5853 27.7506 31.3906 27.7184 31.1999ZM26.9056 22.9951C27.5497 22.3463 28.3123 21.827 29.152 21.4655C29.4897 22.0505 29.6767 22.7103 29.696 23.3855C29.6427 23.5018 29.5828 23.6151 29.5168 23.7247C29.3582 23.9417 29.2447 24.1883 29.1831 24.45C29.1215 24.7116 29.1132 24.983 29.1584 25.2479C29.2205 25.4141 29.3178 25.5648 29.4438 25.6896C29.5698 25.8145 29.7213 25.9105 29.888 25.9711C29.9941 26.015 30.09 26.0804 30.1696 26.1631C30.1974 26.2514 30.1929 26.3467 30.1568 26.4319C29.9793 26.419 29.8058 26.3734 29.6448 26.2975C29.2544 26.1567 28.608 25.9135 28.192 26.4831C28.0962 26.6246 28.0227 26.78 27.9744 26.9439C27.9616 26.9695 27.9488 27.0079 27.936 27.0399C27.9204 27.0387 27.9052 27.0343 27.8912 27.0271C27.8528 27.0143 27.808 27.0015 27.7696 26.9887C27.5301 26.881 27.2639 26.8472 27.0051 26.8916C26.7463 26.9361 26.5066 27.0568 26.3168 27.2383C26.1402 27.5135 26.0655 27.8418 26.1056 28.1663V28.3327C25.6572 28.2111 25.2204 28.0505 24.8 27.8527C24.8498 26.0227 25.6041 24.2825 26.9056 22.9951ZM40.4224 43.3759H23.5815C23.4542 43.3759 23.3321 43.3253 23.242 43.2353C23.152 43.1453 23.1015 43.0232 23.1015 42.8959C23.1015 42.7686 23.152 42.6465 23.242 42.5565C23.3321 42.4665 23.4542 42.4159 23.5815 42.4159H40.4224C40.5497 42.4159 40.6718 42.4665 40.7618 42.5565C40.8519 42.6465 40.9024 42.7686 40.9024 42.8959C40.9024 43.0232 40.8519 43.1453 40.7618 43.2353C40.6718 43.3253 40.5497 43.3759 40.4224 43.3759ZM40.4224 38.7359H23.5815C23.4542 38.7359 23.3321 38.6853 23.242 38.5953C23.152 38.5053 23.1015 38.3832 23.1015 38.2559C23.1015 38.1286 23.152 38.0065 23.242 37.9165C23.3321 37.8265 23.4542 37.7759 23.5815 37.7759H40.4224C40.5497 37.7759 40.6718 37.8265 40.7618 37.9165C40.8519 38.0065 40.9024 38.1286 40.9024 38.2559C40.9024 38.3832 40.8519 38.5053 40.7618 38.5953C40.6718 38.6853 40.5497 38.7359 40.4224 38.7359Z" fill="#F15C2F"/>
</svg>
