<svg width="64" height="64" viewBox="0 0 64 64" fill="none" xmlns="http://www.w3.org/2000/svg">
<circle cx="32" cy="32" r="32" fill="#FFD0F5"/>
<path d="M34.9344 26.7122C35.7575 26.6754 36.5347 26.3225 37.1041 25.727C37.6735 25.1315 37.9914 24.3393 37.9914 23.5154C37.9914 22.6915 37.6735 21.8993 37.1041 21.3038C36.5347 20.7083 35.7575 20.3554 34.9344 20.3186C34.8317 20.3184 34.7291 20.3248 34.6272 20.3378L21.4368 21.6178C20.9433 21.6668 20.4858 21.8978 20.1533 22.2657C19.8208 22.6337 19.6373 23.1123 19.6384 23.6082C19.6459 24.1039 19.8363 24.5793 20.173 24.9431C20.5096 25.3069 20.9689 25.5335 21.4624 25.5794L34.6656 26.6994C34.7552 26.7058 34.8448 26.7122 34.9344 26.7122Z" fill="#FF00C7"/>
<path d="M34.9343 19.4867H34.9727C35.645 19.1957 36.3788 19.0758 37.1087 19.1377C37.8386 19.1996 38.5418 19.4413 39.1554 19.8413C39.769 20.2414 40.274 20.7872 40.6252 21.43C40.9764 22.0728 41.1629 22.7926 41.1679 23.5251V24.2035C41.1696 24.6098 41.3322 24.9988 41.6201 25.2855C41.9079 25.5722 42.2977 25.7331 42.7039 25.7331H42.7103C43.1173 25.7286 43.506 25.5631 43.7914 25.2729C44.0768 24.9827 44.2357 24.5914 44.2335 24.1843L44.2271 23.8259C44.236 21.9217 43.5357 20.0824 42.2627 18.6662C40.9897 17.25 39.2351 16.3585 37.3407 16.1651C35.9184 16.0549 34.4939 16.3506 33.2329 17.0178C31.972 17.6851 30.9263 18.6966 30.2175 19.9347L34.5439 19.5123C34.6731 19.4932 34.8037 19.4846 34.9343 19.4867Z" fill="#FF00C7"/>
<path d="M44.2719 31.2371C44.2704 30.8051 44.1838 30.3776 44.017 29.979C43.8502 29.5805 43.6064 29.2187 43.2998 28.9144C42.9931 28.6101 42.6294 28.3692 42.2296 28.2055C41.8297 28.0418 41.4016 27.9585 40.9695 27.9603L36.7583 27.9859H36.7359C36.0661 27.9843 35.4053 27.8312 34.8031 27.5379C34.7455 27.539 34.6878 27.5369 34.6303 27.5315L29.2479 27.072L29.3631 45.728C29.3619 46.0094 29.4173 46.2882 29.5262 46.5477C29.635 46.8072 29.7951 47.0421 29.9967 47.2384C30.3963 47.6361 30.937 47.8593 31.5007 47.8592H31.5135L42.2399 47.7952C42.8067 47.788 43.3478 47.5574 43.7457 47.1536C44.1435 46.7498 44.3659 46.2053 44.3647 45.6384L44.2719 31.2371ZM32.5209 33.1168L40.7404 33.0682C40.8677 33.0682 40.9898 33.1188 41.0798 33.2088C41.1698 33.2988 41.2204 33.4209 41.2204 33.5482C41.2204 33.6755 41.1698 33.7976 41.0798 33.8876C40.9898 33.9776 40.8677 34.0282 40.7404 34.0282L32.5209 34.0768H32.5177C32.3904 34.0768 32.2683 34.0263 32.1783 33.9362C32.0883 33.8462 32.0377 33.7241 32.0377 33.5968C32.0377 33.4695 32.0883 33.3474 32.1783 33.2574C32.2683 33.1674 32.3904 33.1168 32.5177 33.1168H32.5209ZM32.5478 38.1127C32.4205 38.1127 32.2984 38.0621 32.2084 37.9721C32.1183 37.8821 32.0678 37.76 32.0678 37.6327C32.0678 37.5054 32.1183 37.3833 32.2084 37.2933C32.2984 37.2032 32.4205 37.1527 32.5478 37.1527L40.7679 37.1034C40.8952 37.1034 41.0173 37.154 41.1073 37.244C41.1974 37.334 41.2479 37.4561 41.2479 37.5834C41.2479 37.7107 41.1974 37.8328 41.1073 37.9228C41.0173 38.0128 40.8952 38.0634 40.7679 38.0634L32.549 38.1127H32.5478ZM39.7158 44.4531H39.703C39.2031 44.4548 38.723 44.2579 38.3683 43.9056C38.0137 43.5534 37.8135 43.0746 37.8118 42.5747C37.8101 42.0749 38.007 41.5948 38.3593 41.2401C38.7116 40.8854 39.1903 40.6852 39.6902 40.6835H39.703C40.2028 40.6818 40.6829 40.8788 41.0376 41.2311C41.3923 41.5833 41.5925 42.0621 41.5942 42.5619C41.5959 43.0618 41.3989 43.5419 41.0466 43.8966C40.6944 44.2512 40.2156 44.4514 39.7158 44.4531Z" fill="#FF00C7"/>
</svg>
