<svg width="24" height="24" viewBox="0 0 24 24" fill="none" xmlns="http://www.w3.org/2000/svg">
<g clip-path="url(#clip0)">
<path d="M13.3329 11.1449L11.6828 10.7787C11.0551 10.6357 10.3326 10.4467 10.3326 9.85492C10.3326 9.26184 10.8394 8.84747 11.7544 8.84747C13.5984 8.84747 13.43 10.1147 14.3455 10.1147C14.8273 10.1147 15.249 9.83148 15.249 9.34442C15.249 8.20789 13.43 7.35498 11.887 7.35498C10.2119 7.35498 8.4281 8.06635 8.4281 9.96094C8.4281 10.8734 8.75403 11.844 10.5496 12.2943L12.7791 12.8509C13.4538 13.0172 13.6226 13.3967 13.6226 13.7391C13.6226 14.3086 13.057 14.8649 12.0323 14.8649C10.0308 14.8649 10.3086 13.3246 9.23596 13.3246C8.75403 13.3246 8.4043 13.6566 8.4043 14.1302C8.4043 15.0538 9.52563 16.2863 12.0323 16.2863C14.4173 16.2863 15.5991 15.1368 15.5991 13.5972C15.5991 12.6031 15.1407 11.5477 13.3329 11.1449Z" fill="#00AFF0"/>
<path d="M22.2691 0H1.7309C0.774902 0 0 0.774902 0 1.7309V22.2691C0 23.2251 0.774902 24 1.7309 24H22.2691C23.2251 24 24 23.2251 24 22.2691V1.7309C24 0.774902 23.2251 0 22.2691 0V0ZM18.2477 18.23C17.4587 19.0193 16.4103 19.4531 15.2948 19.4531C14.5723 19.4531 13.8647 19.2653 13.2398 18.9117C12.8342 18.9836 12.4188 19.0215 12.0042 19.0215C11.0517 19.0215 10.1274 18.8348 9.25781 18.4662C8.41699 18.1117 7.66278 17.6025 7.0144 16.9545C6.36676 16.3066 5.85809 15.5524 5.50305 14.712C5.13464 13.8419 4.94824 12.9181 4.94824 11.9654C4.94824 11.5574 4.98486 11.1489 5.05444 10.7492C4.71149 10.1323 4.52893 9.43433 4.52893 8.72406C4.52893 7.6084 4.96362 6.55939 5.75226 5.77057C6.54126 4.98138 7.59027 4.54688 8.70593 4.54688C9.38928 4.54688 10.0646 4.71735 10.6648 5.0365C10.6659 5.03632 10.6672 5.03632 10.6681 5.03595C11.1057 4.95209 11.5552 4.90979 12.0042 4.90979C12.9565 4.90979 13.8807 5.09637 14.7502 5.46423C15.5901 5.81964 16.3453 6.32831 16.9927 6.97614C17.6411 7.62415 18.1496 8.37872 18.505 9.21899C18.8734 10.0889 19.0598 11.0129 19.0598 11.9654C19.0598 12.3948 19.0193 12.8245 18.9423 13.2444C19.2876 13.8636 19.4713 14.564 19.4713 15.2767C19.4711 16.3923 19.0369 17.4415 18.2477 18.23Z" fill="#00AFF0"/>
</g>
<defs>
<clipPath id="clip0">
<rect width="24" height="24" fill="white"/>
</clipPath>
</defs>
</svg>
